<svg width="381" height="396" viewBox="0 0 381 396" fill="none" xmlns="http://www.w3.org/2000/svg">
<path d="M43.2114 26.5875L43.1376 26.593L43.0638 26.5994C32.7445 27.4931 24.265 31.5372 18.6082 38.7824C13.1841 45.7295 11.5 54.1649 11.5 61.8077V273.61C11.5 286.565 16.3933 297.095 25.3501 309.032L25.3947 309.092L25.4402 309.15L70.9608 368.211L70.9947 368.255L71.0289 368.298C75.6259 374.145 80.8188 378.681 87.8516 381.247C94.4881 383.669 101.642 383.9 109.167 383.541L109.24 383.538L109.312 383.533L334.191 369.954L334.252 369.95L334.313 369.946C345.277 369.167 354.92 366.071 361.49 358.611C367.967 351.258 369.458 341.896 369.458 333.358V95.0749C369.458 88.9003 368.003 83.4793 363.687 78.4812C360.85 75.1971 356.706 72.1858 352.752 69.3121C352.215 68.9217 351.681 68.5339 351.154 68.1483L351.064 68.0818L350.972 68.0171L289.23 24.6224C281.461 18.9831 274.664 14.8051 265.978 12.8364C257.682 10.9562 248.587 11.322 236.788 12.3324L43.2114 26.5875Z" fill="white" stroke="white" stroke-width="23"/>
<path fill-rule="evenodd" clip-rule="evenodd" d="M237.701 23.7963L44.056 38.0565C28.4415 39.4088 23 49.5954 23 61.8077V273.61C23 283.126 26.3919 291.259 34.5487 302.13L80.0693 361.19C87.5464 370.701 94.3416 372.735 108.619 372.054L333.498 358.475C352.518 357.124 357.958 348.292 357.958 333.358V95.0749C357.958 87.3554 354.904 85.1254 345.899 78.5518C345.404 78.1901 344.891 77.8153 344.359 77.4257L282.545 33.9802C267.599 23.1229 261.481 21.7567 237.701 23.7963ZM113.718 91.1664C95.3581 92.4062 91.1862 92.6879 80.7599 84.2177L54.2457 63.1737C51.5415 60.4525 52.8978 57.0579 59.6871 56.3847L245.855 42.8061C261.478 41.4455 269.629 46.8852 275.747 51.635L307.678 74.7183C309.038 75.3944 312.429 79.4624 308.351 79.4624L116.088 91.0071C115.273 91.0614 114.484 91.1147 113.719 91.1664L113.718 91.1664ZM92.3031 331.318V129.024C92.3031 120.201 95.021 116.124 103.169 115.44L323.977 102.546C331.466 101.867 334.857 106.622 334.857 115.44V316.376C334.857 325.208 333.495 332.686 321.261 333.358L109.964 345.584C97.7361 346.257 92.3031 342.19 92.3031 331.318ZM300.894 139.876C302.249 145.992 300.894 152.102 294.768 152.789L284.586 154.817V304.164C275.747 308.915 267.596 311.631 260.804 311.631C249.929 311.631 247.206 308.234 239.06 298.056L172.467 193.513V294.662L193.539 299.417C193.539 299.417 193.539 311.631 176.538 311.631L129.67 314.349C128.308 311.631 129.67 304.848 134.424 303.488L146.654 300.099V166.362L129.672 165.001C128.311 158.886 131.703 150.068 141.221 149.383L191.501 145.994L260.804 251.898V158.212L243.135 156.184C241.778 148.707 247.206 143.278 254.001 142.605L300.894 139.876Z" fill="black"/>
</svg>
