<svg width="734" height="405" viewBox="0 0 734 405" fill="none" xmlns="http://www.w3.org/2000/svg">
<path d="M0.950439 45.9119C0.950439 20.8051 21.3036 0.451904 46.4104 0.451904H688.211C713.317 0.451904 733.671 20.805 733.671 45.9119V358.743C733.671 383.85 713.317 404.203 688.211 404.203H46.4104C21.3035 404.203 0.950439 383.85 0.950439 358.743V45.9119Z" fill="white"/>
<path d="M161.241 103.275L143.502 110.622C137.858 90.5401 121.892 79.7644 105.282 79.7644C86.0907 79.7644 67.2224 93.9687 64.4809 120.582H45.1288C48.1929 82.8665 76.2534 62.6212 104.959 62.6212C128.827 62.6212 152.372 76.6623 161.241 103.275ZM143.502 143.929L161.241 151.603C152.372 177.889 128.827 191.93 104.959 191.93C76.2534 191.93 48.0316 171.685 45.1288 133.643H64.4809C67.0612 160.419 85.9295 174.787 105.282 174.787C121.892 174.787 137.696 164.174 143.502 143.929Z" fill="black"/>
<path d="M235.647 63.6008L283.06 185.073L264.514 191.44L217.101 69.9683L235.647 63.6008ZM233.551 139.684V156.664H201.781L188.718 191.44L170.173 185.073L204.361 94.9484L222.907 101.316L208.393 139.684H233.551Z" fill="black"/>
<path d="M372.015 66.0498V83.193H334.117V66.0498H372.015ZM367.339 118.786V135.929H321.216V188.501H301.864V66.0498H321.216V118.786H367.339Z" fill="black"/>
<path d="M446.347 27.0286L451.83 41.5595L406.998 57.07L401.515 42.5391L446.347 27.0286ZM459.571 118.786V135.929H426.35V118.786H459.571ZM467.473 171.358V188.501H394.096V66.0498H467.473V83.193H413.448V171.358H467.473Z" fill="black"/>
<path d="M141.785 230.634V306.711H122.292V230.634H141.785ZM60.8863 226.879L142.435 346.546L126.678 356.831L45.1288 237.164L60.8863 226.879ZM66.247 276.999V353.076H46.7533V276.999H66.247Z" fill="black"/>
<path d="M285.518 285.162H266.024C263.262 258.551 244.256 244.347 224.925 244.347C205.593 244.347 186.587 258.551 183.825 285.162H164.331C167.418 247.449 196.334 227.206 225.249 227.206C254.165 227.206 282.431 247.449 285.518 285.162ZM266.024 298.222H285.518C282.594 336.261 254.165 356.505 225.249 356.505C196.334 356.505 167.255 336.261 164.331 298.222H183.825C186.424 324.996 205.431 339.363 224.925 339.363C244.256 339.363 263.425 324.996 266.024 298.222Z" fill="black"/>
<path d="M383.759 230.634V247.776H292.463V230.634H383.759ZM347.858 260.836V353.076H328.364V260.836H347.858Z" fill="black"/>
<path d="M422.082 230.634V353.076H402.588V230.634H422.082Z" fill="black"/>
<path d="M565.243 285.162H545.749C542.987 258.551 523.981 244.347 504.65 244.347C485.318 244.347 466.312 258.551 463.55 285.162H444.056C447.143 247.449 476.059 227.206 504.974 227.206C533.89 227.206 562.156 247.449 565.243 285.162ZM545.749 298.222H565.243C562.319 336.261 533.89 356.505 504.974 356.505C476.059 356.505 446.98 336.261 444.056 298.222H463.55C466.149 324.996 485.156 339.363 504.65 339.363C523.981 339.363 543.15 324.996 545.749 298.222Z" fill="black"/>
<path d="M683.902 230.634V306.711H664.408V230.634H683.902ZM603.003 226.879L684.552 346.546L668.794 356.831L587.246 237.164L603.003 226.879ZM608.364 276.999V353.076H588.87V276.999H608.364Z" fill="black"/>
</svg>
