<?xml version="1.0" encoding="UTF-8"?>
<svg id="Layer_1" xmlns="http://www.w3.org/2000/svg" version="1.1" viewBox="0 0 382 539">
  <!-- Generator: Adobe Illustrator 29.4.0, SVG Export Plug-In . SVG Version: 2.1.0 Build 152)  -->
  <defs>
    <style>
      .st0 {
        fill: #fff;
      }
    </style>
  </defs>
  <path class="st0" d="M256.8,538.6c-15.6,0-31.3-3.5-46.7-10.3-10.8-4.8-20.4-10.9-28.8-16.3l-2.8-1.8c-.5-.3-.8-.5-.8-.5h-.2c-.1,0-.4,0-.8,0-5.8.8-11.5,1.2-16.9,1.2s-2.9,0-4.4,0c-26.8-1.1-48.2-14.3-60.3-37.1-.2-.4-.4-.8-.6-1.2-13.3-.2-28.6-1.4-44.3-6.6-12.6-4.1-27.1-10.1-39.3-23.3-9.2-10-9.5-20.4-9.8-30.5-.1-4.8-.2-11.5-.3-20.4-.2-15.5-.3-38-.4-66.8-.1-53-.1-117.6,0-169.6,0-39.1,0-70,0-79.8v-2c0-7.4-.1-15,.4-23.1C2.4,21.3,24.5.3,53.1.3s5.4.2,8.2.6c6.2.9,14.4,2.5,22.7,7.2,8.6,4.9,18.5,10.7,28.3,17.7,4.6,3.3,6.8,3.7,8.5,3.8,23.7,1.6,43.8,11.3,58.1,28,.2.2.6.6,1.5,1.3,5.3,4.6,12.8,7.5,23.5,9.2,2.6.4,5.2.9,7.7,1.6,1.3-7.2,4.6-13.9,9.6-19.3,7.2-7.7,17.4-12.2,28.1-12.2s3.2,0,4.9.3c17,2.1,29.6,9.5,37.5,22,7.8,12.4,15.1,26.4,15.4,44.6.2,15.3-4.1,29.6-13,42.8,3.9,5.8,7.1,12,9.5,18.4,2.5,6.7,4.4,13,6.2,19.1.7,2.5,1.5,5,2.3,7.5,3.1,9.7,9.4,19,18.1,29.8h.1c5.1,6.6,11,14,15.9,22.9,12.5,22.8,13.6,46.2,13.2,61.8,0,2,0,4-.2,6-.2,4.8-.3,9.8.2,12.6,1.2,6.9,3.4,14.4,6.6,22.2l.3.8c5.7,14,12.1,29.8,14.3,48.3,1.7,13.8,2.6,34.3-8.1,55.1-.3.8-.6,1.9-1,3.1-.1.4-.4,1.3-.7,2-1.3,4-3.2,10.1-7.2,16.4-10.3,16.1-23.1,29.9-38.2,40.9-21.6,15.8-44.6,23.8-68.5,23.8h0Z"/>
  <path d="M240.8,141.6c2.4,1.1,4.1,2.1,5.8,2.7,8.1,2.6,13.4,8.9,18.2,15.2,7.7,9.9,12,21.7,14.9,33.8,4.9,21.1,17.3,37.6,30.8,53.6,11.4,13.4,16.4,29.2,17.7,46.3.7,8.7-.1,17.5,0,26.2,0,5.4-.1,10.9,1.1,16.1,3,12.7,7.3,25,12.9,36.8,4.9,10.4,6.9,21.7,8.6,32.9,1.2,8.4.4,16.8-1.5,25.3-1.3,5.8-3.9,10.6-5.9,15.7-2.8,7.2-7.5,14.8-12.1,21.4-5,7.3-11.7,13.3-18.7,18.9-15.7,12.6-32.8,20.5-53.1,20.6-18.2,0-34.3-6.4-49.6-15.7-7.9-4.8-15-11.4-24.3-13.4-8.3-1.7-16.7.9-25.1.9-27-.1-35.2-14.9-41.8-34.4-1.4-4.1-2.7-5.2-6.6-5.2-16.4,0-32.9,1-49-3.5-10.8-3-21.2-6.2-29.2-14.7-1.3-1.4-3-2.5-1.9-4.8,1.1-2.3,2.6-4,5.3-4.2,2.5-.2,4.7.7,6.8,1.8,14.7,7.9,30.6,11.9,47,13.3,13.9,1.2,27.8,1.1,41.6-1,16.5-2.5,30.8-10.9,45.5-18.2,4-2,7.8-1.8,11.9-.8,5.6,1.3,9.8,5.1,14.3,8.2,13.7,9.6,37.9,3.3,47.9-8.3,9.4-10.8,14.6-21.5,9-35.9-4.3-11.1-20.2-17.2-30.1-10.7-6.1,4-12.7,6.3-20,6.9-7.2.6-11.3-2.2-10.2-6.8.7-2.7,3-4,5-5.5,10-7.9,11.2-17.8,3-27.4-9.7-11.5-9.6-24.5-6.4-38.2,1.8-7.8,4-15.6,2.7-23.9-1.5-9.8-8.4-16.1-14.2-23.1-6.7-8-13-16.2-16.2-26.4-4.6-15-1.8-29.3,4.7-43.2,1.1-2.4,1-3.5-1.5-4.8-4-2.1-8.3-2.7-12.6-3.8-22.7-6-45.4-5-67.6,1.4-20.8,6-40.1,15.4-56.9,29.3-1.6,1.3-3.4,1.8-5.4,1.1-2.1-.7-1.8-2.5-2-4.3-1.1-9.8-.8-19.7-.8-29.6.1-15.7-.5-31.3-.7-47-.2-22.2-.4-44.5-.3-66.7,0-16.6,11.1-24.7,26.9-19.9,11.4,3.4,20.7,10.5,30.2,17.3,6.7,4.9,13.2,10,22.3,10.6,14.9,1,29.5,4.5,39.7,16,13.4,15,30.9,21,49.3,24.1,16.9,2.9,27.5,11.2,32.5,27.6,2.4,7.9,2.8,7.8,10,3.7,11.6-6.7,19.2-22,13.1-36.5-2.7-6.3-7.2-11.9-7.5-19.2-.1-3.2.5-6.4,3.9-6,5.1.7,10.2,2.3,13.4,7.2,2.9,4.4,4.4,9.4,6.6,14,7,14.9-.9,31.3-9.5,41.3-5.6,6.5-13.1,9.9-21.8,12.9h-.1Z"/>
  <path d="M175.5,292c7.2,8.5,9.3,19.2,12.2,29.4.8,2.8-.1,6.9-4,7.5-3.5.5-5.8-1.6-6.3-5.5-.2-1.8-1-3.6-1.6-5.3-4.2-11.8-10-22.3-21.7-28.2-3.1-1.6-3.4-1.5-3.2.9,1,10.3-4,17.6-11.7,23.5-5.5,4.2-11.1,2.4-13.9-3.9-2-4.5-1-8.6.4-12.9,4.3-13.1,13.2-21,25.8-21.1,9.5.5,17.1,7.4,24.1,15.5Z"/>
  <path d="M76.5,219.8c6.9-.6,13.1,2.2,18.2,7.4,6.2,6.2,11.4,13.1,14.9,21.3,1.8,4.3,3.7,8.4,3.2,13.2-.2,2.1-.7,4.4-3.1,4.8-2.5.4-4.8-.6-6-2.9-1.7-3.4-3.2-6.9-4.6-10.4-3.1-8-7.8-14.8-15-19.7-4.8-3.2-6.8-2.1-7.2,3.5-.4,6.2-2.5,11.9-6.6,16.5-3,3.3-6.9,5.1-11.6,3.8-4.5-1.2-6.7-4.4-7.6-8.8-2.5-12.1,8.9-30,25.3-28.7h0Z"/>
  <path d="M122.8,215.2c-9.5-3.4-14.8-10.8-16.7-20.3-1.4-7,5-12.4,12-10.8,7.3,1.6,15.6,13.1,15.8,21.9.1,5.9-5.8,11.1-11,9.2Z"/>
  <path d="M200.8,261.1c.9,5.2-2.6,6.8-6.6,7.3-7.8.9-19.7-6.4-22.8-13.6-1.6-3.7-1.5-7.3,1.4-10.1,2.8-2.6,6.4-3.8,10.1-2.4,3.3,1.2,6.9,2.5,9.1,4.9,3.7,4,9.4,7,8.8,13.9h0Z"/>
  <path d="M65.1,364.6c-13.9.5-19.8-10-21.1-20.4-.5-4.2,1.9-7.3,6.2-7.6,4.5-.3,5,3.9,5.9,6.9,2.9,9.3,4.6,10.6,14.1,10.8,2.9,0,7,.8,7.1,4.9.1,3.5-3.5,4.1-6.2,4.9-1.9.6-4,.3-6,.4h0Z"/>
  <path d="M97.2,292.6c1.7-.2,3.3.4,3.8,2.1.8,2.4.5,4.8-1.1,6.7-2.5,2.9-4.8,6-7.8,8.2-5.4,3.8-10.5,8.8-18.2,6.7-3.3-.9-4.1-3.8-5-6.2-.8-2.3,1.7-3.3,3.4-3.8,7.8-2.4,14.5-6.5,20.6-11.8,1.3-1.1,2.5-1.9,4.2-1.8h0Z"/>
</svg>