<svg width="619" height="404" viewBox="0 0 619 404" fill="none" xmlns="http://www.w3.org/2000/svg">
<path d="M34.8923 403.881C23.6373 403.881 13.4564 398.865 6.94335 390.123C3.05838 384.901 -2.76907 373.795 1.91574 358.107C2.807 355.124 3.74397 352.153 4.6695 349.194C6.08637 344.681 7.43469 340.419 8.55447 336.294C12.3709 322.239 17.3299 309.179 22.129 296.553C24.7914 289.548 27.3052 282.932 29.579 276.294C45.9987 228.303 69.1486 185.294 87.4879 153.174C97.7602 135.178 110.398 117.627 125.058 100.99C129.057 96.4539 133.125 93.1403 136.404 90.4665C137.73 89.3924 138.975 88.3755 139.764 87.6327C159.897 68.7564 183.778 53.7535 210.721 43.0584C226.65 36.7282 242.692 34.043 254.896 32.409C262.78 31.3578 270.801 30.8208 278.743 30.8208C300.716 30.8208 323.054 34.9 345.153 42.9556C347.175 43.6869 349.209 44.3953 351.243 45.1038C358.122 47.4919 365.697 50.1199 373.467 53.9592C378.415 42.2929 385.568 31.3007 394.903 21.0284C400.616 14.7439 406.992 10.4818 411.643 7.37384C412.317 6.91679 413.003 6.47116 413.665 6.0141C419.321 2.16341 425.983 0.129517 432.953 0.129517C436.541 0.129517 439.443 0.677983 441.043 0.997922C449.064 2.16341 456.377 6.31119 461.508 12.63C466.809 19.1544 469.346 27.4728 468.638 35.8141C468.523 38.5679 468.169 45.3551 464.216 52.6109C460.845 58.7926 456.514 62.8604 454.435 64.8143C453.589 65.6027 452.801 66.3911 452.069 67.1795C463.667 67.5337 475.322 69.6933 486.771 73.6126C507.887 80.8455 525.678 92.4775 539.653 108.177C552.187 122.266 562.414 138.971 571.818 160.75L572.469 162.247C577.051 172.828 582.239 184.826 585.609 198.114C586.752 202.605 588.272 207.358 589.894 212.397C591.505 217.425 593.185 222.624 594.671 228.177C596.27 234.142 597.356 239.946 598.316 245.077C598.807 247.739 599.275 250.253 599.79 252.618C600.258 254.835 600.829 257.177 601.424 259.657C602.143 262.651 602.898 265.747 603.583 269.061C604.977 275.711 606.428 282.875 607.594 290.12C610.508 308.288 613.227 326.067 615.501 341.058C616.289 346.246 616.884 351.274 617.466 356.141L617.798 358.964C618.997 368.893 615.969 378.777 609.502 386.078C605.663 390.409 597.082 397.665 582.73 397.665C578.845 397.676 54.7285 403.332 36.5491 403.846C35.9778 403.869 35.4179 403.881 34.8694 403.881H34.8923Z" fill="white"/>
<path d="M381.232 163.806C381.537 164.182 381.843 164.405 381.926 164.712C382.051 165.144 382.079 165.617 382.037 166.077C381.69 170.453 381.468 174.828 380.912 179.175C379.76 188.233 380.76 197.165 382.162 206.083C382.384 207.448 382.787 208.786 383.065 210.137C384.092 215.112 384.634 220.254 386.217 225.047C388.341 231.485 391.104 237.727 393.909 243.914C395.867 248.22 398.033 252.484 400.671 256.385C403.573 260.663 407.072 264.537 410.418 268.508C411.668 269.999 413.168 271.295 414.64 272.577C416.014 273.775 417.514 274.821 418.93 275.977C422.86 279.168 426.581 282.638 430.719 285.536C434.662 288.295 438.883 290.747 443.229 292.796C448.686 295.374 454.337 297.603 460.03 299.61C464.335 301.128 468.847 302.09 473.263 303.302C473.707 303.428 474.124 303.651 474.568 303.762C476.887 304.319 479.192 305.058 481.539 305.337C484.246 305.671 485.176 306.103 485.274 308.792C485.426 312.945 485.44 317.125 485.204 321.277C484.829 327.896 483.496 334.459 484.038 341.148C484.093 341.9 483.857 342.778 483.496 343.461C480.622 348.867 481.191 354.901 480.317 360.656C480.081 362.23 480.775 363.108 482.413 363.066C486.301 362.955 490.189 362.816 494.077 362.746C496.937 362.69 499.811 362.704 502.672 362.69C504.977 362.69 507.296 362.816 509.6 362.648C512.808 362.398 516.002 361.492 519.098 363.248C519.515 363.485 520.237 363.345 520.778 363.192C525.305 361.91 529.956 361.938 534.4 362.941C538.482 363.847 542.203 361.785 546.216 362.551C548.979 363.08 551.895 362.816 554.741 362.871C555.741 362.885 556.755 362.871 557.754 362.774C559.462 362.621 561.17 362.258 562.878 362.258C570.015 362.216 577.152 362.3 584.275 362.3C586.247 362.3 587.247 361.018 586.552 359.36C585.344 356.489 585.594 353.605 585.344 350.651C584.678 342.834 583.262 335.086 582.04 327.311C581.318 322.741 579.874 318.226 579.735 313.655C579.54 307.218 578.374 301.017 576.972 294.802C576.666 293.465 576.624 292.071 576.374 290.72C575.208 284.491 574.958 277.872 572.542 272.173C570.529 267.435 571.57 262.335 569.196 257.932C569.571 249.99 565.044 242.981 564.864 235.15C564.864 234.941 564.683 234.732 564.6 234.509C563.558 231.345 562.378 228.21 561.531 224.991C559.865 218.651 558.824 212.144 556.005 206.152C555.755 205.637 555.561 205.079 555.394 204.522C554.158 200.202 553.325 195.729 551.645 191.605C547.299 180.945 542.828 170.327 537.899 159.946C534.899 153.634 531.067 147.656 527.374 141.734C523.458 135.463 518.279 129.834 512.975 124.623C507.504 119.244 502.061 113.67 494.688 110.535C492.313 109.518 490.064 108.208 487.523 107.372C484.927 106.522 482.705 104.501 480.094 103.749C474.027 101.993 467.903 100.112 461.669 99.3318C448.131 97.6597 434.745 98.9556 421.915 103.847C416.57 105.881 417.069 104.446 415.487 100.405C415.32 99.9728 415.209 99.5269 415.112 99.0671C412.598 87.3901 413.682 75.7689 417.903 64.8862C421.429 55.7732 426.581 47.2035 434.398 40.738C435.801 39.5675 436.953 38.0626 438.078 36.5995C439.119 35.234 439.8 33.3807 438.272 32.252C437.356 31.5553 435.204 31.4438 434.232 32.057C430.358 34.5233 426.414 37.0176 423.082 40.1389C416.084 46.7019 411.321 54.9928 406.878 63.3813C405.225 66.5026 404.128 69.9583 403.129 73.3722C400.754 81.5238 399.533 89.8425 400.157 98.3843C400.38 101.436 399.519 101.854 396.742 100.349C388.633 95.9736 380.551 91.5565 372.401 87.2368C370.707 86.3311 368.652 86.0663 366.999 85.1049C360.404 81.2451 353.739 77.6639 346.088 76.3681C345.325 76.2426 344.603 75.7689 343.881 75.4205C342.214 74.6541 340.604 73.7345 338.882 73.1074C335.855 72.0066 332.772 71.0173 329.676 70.1116C324.802 68.6903 319.97 67.0181 314.999 66.1403C306.849 64.6772 298.615 63.646 290.381 62.6706C287.201 62.2944 283.952 62.4477 280.731 62.5592C276.037 62.7124 271.316 62.8239 266.651 63.3116C261.625 63.8411 256.598 64.5796 251.655 65.5829C245.379 66.8509 239.131 68.3558 232.952 70.0279C229.966 70.8361 227.078 72.0902 224.232 73.3583C218.025 76.1312 211.777 78.8205 205.751 81.9418C200.641 84.5893 195.67 87.5712 190.907 90.804C185.2 94.6777 179.632 98.8023 174.245 103.108C169.663 106.773 165.706 111.246 160.929 114.618C155.5 118.45 151.584 123.536 147.572 128.58C141.962 135.631 136.519 142.793 131.006 149.913C130.729 150.276 130.507 150.694 130.284 151.084C128.424 154.386 126.619 157.731 124.675 160.977C122.911 163.931 120.884 166.746 119.135 169.714C116.844 173.588 114.65 177.531 112.497 181.502C108.082 189.626 103.542 197.694 99.3899 205.957C93.8497 216.993 88.5733 228.155 83.3386 239.344C80.7004 245.001 78.451 250.84 75.9378 256.553C74.5492 259.716 72.7025 262.698 71.5223 265.93C69.4534 271.56 67.8149 277.343 65.8293 283.014C62.8857 291.402 59.8587 299.763 56.7762 308.096C55.1655 312.415 53.3465 316.665 51.6248 320.943C51.4165 321.473 51.236 322.03 51.0693 322.587C48.8199 329.959 46.5844 337.344 44.335 344.715C42.2384 351.585 40.0861 358.426 38.0589 365.31C37.3924 367.567 38.4616 368.738 40.6554 368.431C43.9185 367.999 47.1676 367.428 50.4445 367.121C52.0274 366.968 53.652 367.316 55.2627 367.372C56.8178 367.428 58.3869 367.414 59.942 367.372C61.0806 367.344 62.2331 367.219 63.3716 367.149C65.0656 367.052 66.7735 366.982 68.4675 366.871C69.3839 366.815 70.3142 366.536 71.2029 366.634C75.0213 367.052 78.812 368.626 82.6582 366.606C83.1164 366.369 83.7968 366.564 84.3661 366.564C91.1559 366.55 97.9458 366.606 104.736 366.48C108.415 366.411 108.401 366.271 108.957 362.718C108.985 362.565 109.29 362.453 109.582 362.244C109.901 362.481 110.276 362.732 110.609 363.025C113.469 365.421 116.455 364.46 117.191 360.753C118.052 356.448 118.649 352.072 119.412 347.753C121.467 336.243 123.203 324.664 125.716 313.265C128.799 299.247 132.659 285.411 137.546 271.894C139.49 266.53 139.962 266.279 145.558 266.864C155.292 267.895 165.067 268.759 174.828 269.414C178.369 269.651 181.965 269.024 185.534 268.954C202.724 268.606 219.469 265.429 236.048 261.137C239.061 260.357 242.102 259.646 245.046 258.671C250.294 256.929 255.446 254.908 260.708 253.181C271.15 249.753 281.189 245.349 290.784 240.027C300.17 234.829 309.556 229.618 317.999 222.873C324.941 217.328 332.189 212.144 338.896 206.333C345.436 200.676 351.504 194.447 357.71 188.4C359.849 186.31 361.459 183.565 363.848 181.865C367.055 179.566 369.179 176.486 371.595 173.546C374.234 170.341 377.177 167.373 380.024 164.335C380.288 164.057 380.829 164.015 381.246 163.862L381.232 163.806ZM232.23 282.791C220.261 282.624 211.124 287.306 203.237 295.109C196.808 301.463 194.309 309.531 192.573 318.017C192.296 319.355 192.379 320.79 192.504 322.169C192.685 324.19 193.601 325.806 195.795 326.029C198.003 326.252 198.739 324.58 199.238 322.824C199.835 320.706 200.377 318.574 200.96 316.456C202.501 310.855 205.292 305.769 209.472 301.951C223.954 288.755 239.006 290.678 254.099 301.756C259.472 305.699 264.138 310.59 269.192 314.993C270.22 315.885 271.441 316.637 272.691 317.181C274.274 317.864 278.481 314.7 277.981 313.168C277.343 311.217 276.676 308.96 275.274 307.622C269.386 301.965 263.569 296.126 257.043 291.263C249.628 285.717 241.033 282.596 232.216 282.805L232.23 282.791ZM324.039 274.402C317.096 274.026 308.695 278.332 301.336 284.198C296.004 288.448 292.616 294.677 290.395 301.24C289.478 303.929 289.173 306.869 288.853 309.712C288.673 311.231 289.076 312.875 291.047 313.07C292.866 313.251 293.741 312.039 294.199 310.451C294.394 309.782 294.533 309.099 294.741 308.43C296.574 302.48 299.295 297.004 304.072 292.865C316.874 281.788 330.037 281.857 342.159 288.852C349.532 293.102 356.28 298.314 362.14 304.696C364.653 307.427 368.096 309.322 371.29 311.356C372.165 311.914 374.164 312.095 374.65 311.551C375.303 310.827 375.428 309.015 374.97 308.04C373.65 305.239 372.262 302.355 370.318 300C364.222 292.656 356.947 286.581 348.879 281.509C342.214 277.329 335.05 274.598 324.052 274.375L324.039 274.402ZM240.852 362.426C248.378 362.426 249.822 360.684 249.364 354.176C248.989 348.742 246.212 344.339 243.74 339.838C242.394 337.386 240.325 335.212 238.214 333.331C234.326 329.875 227.453 332.16 226.203 337.246C225.801 338.89 225.426 340.841 225.94 342.346C227.536 347 229.133 351.752 231.549 356.002C233.632 359.667 237.395 361.757 240.866 362.412L240.852 362.426ZM333.342 353.048C338.41 353.048 340.826 350.191 340.34 345.063C339.743 338.626 337.16 333.066 333.3 328.022C332.398 326.851 331.328 325.723 330.12 324.873C327.51 323.047 324.483 322.434 321.609 323.841C318.873 325.193 317.277 327.785 317.374 330.906C317.443 333.289 317.707 335.853 318.665 337.971C320.331 341.608 322.622 344.952 324.636 348.422C326.58 351.766 329.607 353.076 333.328 353.048H333.342Z" fill="white"/>
<path d="M381.232 163.806C380.801 163.959 380.274 164.001 380.01 164.28C377.163 167.317 374.234 170.285 371.582 173.49C369.166 176.43 367.041 179.51 363.834 181.809C361.459 183.523 359.849 186.254 357.696 188.344C351.504 194.406 345.436 200.62 338.882 206.278C332.175 212.088 324.927 217.272 317.985 222.818C309.542 229.562 300.156 234.773 290.77 239.971C281.175 245.28 271.136 249.697 260.694 253.125C255.446 254.853 250.28 256.873 245.032 258.615C242.088 259.59 239.047 260.315 236.034 261.081C219.455 265.359 202.71 268.536 185.52 268.898C181.951 268.968 178.355 269.595 174.814 269.358C165.039 268.689 155.278 267.839 145.544 266.808C139.962 266.223 139.476 266.474 137.533 271.839C132.645 285.369 128.785 299.192 125.702 313.21C123.189 324.622 121.453 336.201 119.398 347.697C118.621 352.031 118.024 356.392 117.177 360.698C116.441 364.404 113.456 365.366 110.595 362.969C110.262 362.69 109.887 362.439 109.568 362.189C109.276 362.412 108.971 362.509 108.943 362.662C108.387 366.216 108.401 366.355 104.722 366.425C97.9319 366.55 91.1421 366.494 84.3522 366.508C83.7829 366.508 83.0886 366.313 82.6443 366.55C78.812 368.571 75.0074 366.982 71.189 366.578C70.3004 366.48 69.3701 366.745 68.4536 366.815C66.7596 366.926 65.0517 366.996 63.3578 367.094C62.2192 367.163 61.0667 367.289 59.9281 367.316C58.373 367.358 56.8039 367.358 55.2488 367.316C53.6381 367.261 52.0135 366.926 50.4306 367.066C47.1537 367.372 43.9046 367.93 40.6416 368.375C38.4477 368.668 37.3785 367.512 38.045 365.254C40.0723 358.371 42.2245 351.515 44.3211 344.659C46.5705 337.288 48.8061 329.903 51.0555 322.532C51.2221 321.974 51.4026 321.431 51.6109 320.887C53.3326 316.609 55.1516 312.36 56.7623 308.04C59.8587 299.707 62.8857 291.347 65.8154 282.958C67.801 277.301 69.4395 271.504 71.5084 265.875C72.7025 262.642 74.5353 259.66 75.9239 256.497C78.4371 250.784 80.6865 244.945 83.3247 239.288C88.5594 228.099 93.8497 216.937 99.376 205.901C103.528 197.638 108.068 189.57 112.484 181.447C114.636 177.489 116.816 173.546 119.121 169.658C120.87 166.69 122.884 163.876 124.661 160.921C126.605 157.675 128.41 154.331 130.271 151.028C130.493 150.624 130.715 150.22 130.993 149.858C136.505 142.737 141.948 135.561 147.558 128.524C151.57 123.48 155.486 118.394 160.915 114.562C165.678 111.19 169.649 106.717 174.231 103.052C179.619 98.7466 185.187 94.622 190.893 90.7483C195.656 87.5155 200.627 84.5336 205.737 81.886C211.763 78.7648 218.025 76.0754 224.218 73.3025C227.064 72.0345 229.939 70.7665 232.938 69.9722C239.131 68.314 245.365 66.8091 251.641 65.5272C256.598 64.5239 261.611 63.7854 266.637 63.2559C271.303 62.7682 276.024 62.6428 280.717 62.5034C283.938 62.4059 287.187 62.2387 290.367 62.6149C298.601 63.5903 306.835 64.6214 314.985 66.0845C319.956 66.9763 324.788 68.6485 329.662 70.0558C332.759 70.9615 335.827 71.9509 338.868 73.0517C340.59 73.6787 342.2 74.5984 343.867 75.3648C344.589 75.6992 345.311 76.173 346.074 76.3123C353.725 77.6082 360.39 81.1893 366.986 85.0491C368.638 86.0106 370.679 86.2893 372.387 87.1811C380.524 91.4868 388.619 95.9179 396.728 100.293C399.505 101.798 400.366 101.38 400.143 98.3285C399.532 89.7868 400.74 81.468 403.115 73.3164C404.115 69.9025 405.212 66.4468 406.864 63.3255C411.307 54.9232 416.07 46.6322 423.068 40.0831C426.4 36.9618 430.344 34.4537 434.218 32.0012C435.19 31.3881 437.328 31.4996 438.258 32.1963C439.772 33.3389 439.091 35.1922 438.064 36.5438C436.953 38.0069 435.801 39.5118 434.384 40.6823C426.567 47.1617 421.429 55.7174 417.889 64.8305C413.668 75.7131 412.585 87.3344 415.098 99.0113C415.195 99.4572 415.306 99.917 415.473 100.349C417.056 104.39 416.556 105.825 421.902 103.791C434.731 98.8998 448.117 97.6039 461.655 99.2761C467.889 100.042 474.013 101.938 480.081 103.693C482.691 104.446 484.913 106.466 487.509 107.316C490.05 108.152 492.286 109.462 494.674 110.479C502.047 113.614 507.49 119.188 512.961 124.567C518.265 129.778 523.444 135.408 527.36 141.678C531.053 147.6 534.885 153.564 537.885 159.89C542.814 170.285 547.285 180.903 551.631 191.549C553.311 195.674 554.144 200.16 555.38 204.466C555.533 205.024 555.741 205.567 555.991 206.096C558.81 212.088 559.851 218.596 561.517 224.936C562.364 228.154 563.558 231.276 564.586 234.453C564.655 234.676 564.836 234.871 564.85 235.094C565.044 242.925 569.557 249.934 569.182 257.876C571.556 262.28 570.529 267.38 572.528 272.117C574.944 277.816 575.194 284.435 576.361 290.664C576.611 292.015 576.666 293.409 576.958 294.747C578.346 300.961 579.526 307.162 579.721 313.6C579.86 318.17 581.304 322.699 582.026 327.255C583.248 335.017 584.664 342.778 585.33 350.595C585.58 353.549 585.33 356.434 586.538 359.304C587.233 360.976 586.233 362.258 584.261 362.244C577.124 362.244 569.987 362.175 562.864 362.203C561.156 362.203 559.448 362.579 557.741 362.718C556.741 362.802 555.727 362.83 554.727 362.816C551.881 362.76 548.965 363.025 546.202 362.495C542.203 361.729 538.468 363.791 534.386 362.885C529.942 361.896 525.291 361.868 520.764 363.136C520.237 363.289 519.515 363.429 519.084 363.192C515.988 361.436 512.794 362.342 509.587 362.593C507.296 362.774 504.977 362.635 502.658 362.635C499.798 362.635 496.923 362.635 494.063 362.69C490.175 362.774 486.287 362.913 482.399 363.011C480.747 363.053 480.053 362.189 480.303 360.6C481.191 354.831 480.608 348.798 483.482 343.405C483.843 342.722 484.093 341.845 484.024 341.092C483.469 334.404 484.815 327.841 485.19 321.222C485.426 317.069 485.412 312.889 485.26 308.737C485.163 306.047 484.232 305.615 481.525 305.281C479.178 304.988 476.873 304.264 474.554 303.706C474.11 303.595 473.693 303.372 473.249 303.246C468.834 302.034 464.321 301.087 460.016 299.554C454.324 297.533 448.672 295.318 443.215 292.74C438.869 290.692 434.648 288.239 430.705 285.48C426.567 282.596 422.832 279.126 418.916 275.921C417.5 274.765 416 273.72 414.626 272.521C413.154 271.239 411.654 269.944 410.405 268.453C407.058 264.495 403.559 260.608 400.657 256.33C398.019 252.428 395.853 248.164 393.895 243.858C391.09 237.672 388.327 231.429 386.203 224.991C384.62 220.198 384.078 215.056 383.051 210.082C382.773 208.73 382.356 207.392 382.148 206.027C380.732 197.109 379.746 188.177 380.899 179.12C381.454 174.772 381.676 170.383 382.023 166.021C382.065 165.576 382.023 165.088 381.912 164.656C381.829 164.363 381.523 164.126 381.218 163.75L381.232 163.806Z" fill="black"/>
<path d="M232.23 282.791C241.047 282.582 249.642 285.703 257.056 291.249C263.569 296.126 269.386 301.965 275.288 307.608C276.69 308.946 277.357 311.203 277.995 313.154C278.495 314.687 274.288 317.85 272.705 317.167C271.455 316.623 270.233 315.871 269.206 314.979C264.152 310.59 259.486 305.685 254.113 301.742C239.019 290.664 223.954 288.741 209.486 301.937C205.306 305.755 202.529 310.841 200.974 316.442C200.391 318.56 199.849 320.692 199.252 322.81C198.752 324.566 198.016 326.238 195.809 326.015C193.615 325.792 192.685 324.176 192.518 322.155C192.393 320.776 192.324 319.341 192.587 318.003C194.309 309.531 196.822 301.449 203.251 295.095C211.138 287.292 220.274 282.624 232.244 282.777L232.23 282.791Z" fill="black"/>
<path d="M324.039 274.389C335.036 274.611 342.2 277.343 348.865 281.523C356.933 286.595 364.209 292.67 370.304 300.014C372.262 302.369 373.65 305.253 374.956 308.054C375.414 309.015 375.275 310.841 374.636 311.565C374.15 312.109 372.151 311.928 371.276 311.37C368.096 309.336 364.639 307.441 362.126 304.71C356.266 298.328 349.518 293.116 342.145 288.866C330.009 281.885 316.86 281.802 304.058 292.879C299.281 297.018 296.56 302.494 294.727 308.444C294.519 309.113 294.38 309.796 294.185 310.464C293.727 312.053 292.852 313.265 291.034 313.084C289.062 312.875 288.659 311.231 288.84 309.726C289.173 306.869 289.464 303.943 290.381 301.254C292.603 294.691 296.004 288.462 301.322 284.212C308.682 278.346 317.082 274.04 324.025 274.416L324.039 274.389Z" fill="black"/>
<path d="M240.852 362.412C237.381 361.743 233.618 359.653 231.535 356.002C229.119 351.752 227.523 347 225.926 342.346C225.412 340.841 225.787 338.877 226.19 337.246C227.453 332.16 234.312 329.875 238.2 333.331C240.311 335.212 242.38 337.386 243.727 339.838C246.198 344.339 248.975 348.742 249.35 354.176C249.808 360.684 248.364 362.426 240.838 362.426L240.852 362.412Z" fill="black"/>
<path d="M333.342 353.034C329.62 353.062 326.593 351.752 324.65 348.408C322.622 344.938 320.345 341.594 318.679 337.957C317.707 335.839 317.457 333.275 317.388 330.892C317.29 327.771 318.887 325.179 321.623 323.827C324.497 322.42 327.524 323.019 330.134 324.859C331.342 325.709 332.411 326.823 333.314 328.008C337.174 333.052 339.743 338.612 340.354 345.049C340.826 350.177 338.41 353.048 333.342 353.034Z" fill="black"/>
</svg>
