<?xml version="1.0" encoding="UTF-8"?>
<svg id="Layer_1" xmlns="http://www.w3.org/2000/svg" version="1.1" viewBox="0 0 463 405">
  <!-- Generator: Adobe Illustrator 29.4.0, SVG Export Plug-In . SVG Version: 2.1.0 Build 152)  -->
  <defs>
    <style>
      .st0 {
        fill: #fff;
      }
    </style>
  </defs>
  <path class="st0" d="M112.5,404.4c-4.4,0-7.4,0-9.2,0-8.7-.2-20.3-.5-32.1-1-.8,0-1.5,0-2.3-.1-7-.3-15-.7-23.4-3.5-13-4.4-24.1-12.1-32.9-23-2.3-2.9-3.7-5.7-4.8-7.8-.2-.3-.3-.7-.5-1-1.8-3.6-4.1-8.1-5.4-13.6-1.9-7.9-2.1-16.2-.7-24.7.4-2.6.8-5.2,1.2-7.9.3-1.8.6-3.6.8-5.5.2-1.1.5-3,1.3-5.2.6-1.5,1.1-3,1.6-4.6,2.5-7,5.1-14.3,8.9-21.6,1.5-3,3-6,4.5-9.2,1.2-2.6,2.5-5.2,3.8-7.9,1-2,2.1-3.6,2.9-4.8.2-.3.5-.7.6-.9,6.2-12.4,13.6-23.7,20.8-34.7,2.3-3.5,4.7-7.2,7-10.8,1.4-2.2,2.8-4.4,4.2-6.7.3-.5.6-1,1-1.6-.5,0,3-4.7-4.5-3.3-7.5,1.5-14.4-6.5-13.5-14.9s4-14.6,10.2-19.4c1.1-.8,2.2-1.7,3.2-2.6-3.6-2.2-6.5-5.6-8.1-9.9-2.7-7.3-3.2-15.1-1.7-23.1,2.3-12.1,5.6-26.4,11.9-40.2,4.8-10.4,11-22.5,20.6-33.4,9.3-10.6,19.1-18.4,29.8-24,3.2-1.7,6.5-3.1,9.9-4.2.8-5.4,2.7-10.7,5.8-15.8.6-.9,1.1-1.9,1.6-2.8.5-.9,1-1.8,1.5-2.6,4-6.7,11.1-10.9,19.1-11.2h.7c5.3,0,10.4,2.2,14.1,6,.4.4.7.8,1.1,1.2,9.5-3.6,19.4-5.4,29.7-5.4s12.5.6,18.9,1.9c23.4,4.7,43.6,14.3,58.6,22.2,1.4.8,2.9,1.5,4.3,2.2,3.8,2,7.8,4,11.8,6.4,3.5,2.1,6.3,4.4,8.8,6.4.7.6,1.5,1.2,2.2,1.8,3,2.3,4.5,4.9,5.1,5.9h0c0,0-.2-.2-.3-.4l-6.6,17.3c11.9,9.2,23.6,18.3,34.5,26.7.4.3.8.6,1.1.8,2,1.5,4.8,3.5,7,6.9,2.3,3.5,4.7,9.3,2.8,17l-7.6,9.3c.5.8.9,1.5,1.2,2v.2c0-.1,0-.2,0-.3l2.6,10.4c-.7,9.2-7.5,16.3-16.4,17.7l.4,1.7c0,4.3-1.1,8.1-3.4,11.4-3.6,5.3-9.6,8.4-16.2,8.4s-4.4-.4-6.6-1.1c-3.5-1.2-6.8-3.2-9.3-5.7-2.6,9.7-6.1,18.1-10.7,25.5,7.9,1,15.1,2,22,3.3,11.4,2.1,22.1,5.3,32.5,8.3,3.1.9,6.4,1.9,9.6,2.8,6.6,1.9,13.1,4,19.4,6.1,2.7.9,5.4,1.8,8.1,2.6.9.3,1.6.6,2,.7h0c3.3,1.4,8.3,3.4,12,8.7,3.7,5.3,3.6,10.6,3.6,14v7.1c0,8.5-.1,17.3-.1,25.9s0,12.5,0,18.7c0,5.7,0,11.5,0,17.2,0,8.6,0,17.1,0,25.7,0,6.4,0,12.8,0,19.2s0,4.6,0,7c0,3.9,0,7.9,0,11.9,0,3.1-.4,5.9-.7,8.1v.2c-1,6.6-5.8,12.5-12.3,14.9-2.7,1-5.4,1.6-8.1,1.8-12.6.9-26.1,1.3-41.3,1.3s-3.7,0-5.6,0c-.6,0-3.2,0-7.4,0-130.4,1.3-178,1.6-195.1,1.6h0Z"/>
  <path class="st0" d="M156.1,188.2c.3,2.3,1.1,4.2,2.6,5.7,1.5,1.6,3.2,3.1,5,4.3,7.7,5.2,16.3,8.6,25.2,11.3,7.3,2.2,14.9,2.9,22.5,2.8,8.1-.2,15.9-2.1,23.1-5.9,9.2-4.9,16.2-12,21.6-20.8,3.7-6,5.8-12.5,7.8-19.1,2.2-7,2.5-14.2,2.9-21.5.2-3.6-.6-7.2-1.1-10.7-1.4-11.8-5.3-22.8-11.4-33-1.5-2.4-3.1-4.7-4.4-7.2-3.2-6-7.6-11.1-12.5-15.6-3.4-3.1-7-6.1-10.6-9-2-1.6-4.3-2.9-6.5-4.4-1.5-1-3.1-2-4.7-3-3.8-2.2-7.6-4.4-11.4-6.6-6-.7-11.6-5-18.1-2.5-.8,1.9,0,3,1.8,3.6,1.8.6,3.6.9,5.4,1.5,1.1.3,2.1,1,3.5,1.6-2.9,3.6-4.6,7.4-6.2,11.3-2.7,6.8-4.1,13.7-4.2,20.9-.1,9.4,1.3,18.6,5.3,27.3,3.8,8.3,9,15.6,16.1,21.3,1.2,1,2.7,1.6,4.6,2.8.9-.9,1.5-1.5,2-2.1-4.6-5.1-9-9.6-12.8-14.5-3.9-5.1-6.1-11.1-7.3-17.3.5-1.1,1-1.9,1.3-2.9,1.4-4,3.6-7.6,6.5-10.6,1.6-1.7,3.1-4.2,6.2-3.3.3,1.2.5,2.2.9,3.3.9,2.8,2.2,5.2,4.3,7.3,1.8,1.8,3.8,2.5,6.2,1.7,1.9-2.2,2.1-2.8,1.9-5.1-.3-3.3-1.7-6.1-3.5-8.8-4.4-6.4-12.6-6.2-16.9-1.7-1.6,1.7-3.3,3.5-4.8,5.4-1.2,1.4-2.1,3-3.3,4.7-2.2-10.2,3-31.9,10.7-36.8.5.2,1.2.4,1.7.8,4.3,2.7,8.5,5.4,12.8,8.1,5.7,3.6,10.6,8.2,15.3,13,6.1,6.2,10.9,13.5,15.2,21.1,4.4,7.9,7.8,16.3,9.5,25.1,1.6,8.3,1.9,16.7.6,25.1-1.7,10.6-5,20.4-11.1,29.3-6.6,9.7-15.6,16-27,18.5-7.4,1.6-15,1.2-22.5-.3-5.9-1.3-11.7-2.8-17.3-5.1-4.1-1.7-8.4-3.3-11.9-5.8-3.2-2.3-6.8-2.7-10.2-4-.7-.3-1.7,0-2.8,0h0ZM103.5,121.2c-3.2,2.3-4,4.7-4.6,7.3-1,4.6-2.1,9.2-2.8,13.9-.4,2.5-1.2,4.7-2.5,6.7-7.5,12-15.7,23.3-26.8,32.2-2.2,1.8-3.9,4-4.1,7.4h5.2c4.8-2.6,9-6.1,12.6-10.4,2.1-2.4,4.1-4.9,6.2-7.3.7-.8,1.7-1.5,2.8-2.3.8,1.4,1.3,2.6,2,3.5,4.8,6.2,9.5,12.6,14.7,18.5,5.4,6.2,11.3,12,17,17.8,1.6,1.6,3.4,3.1,6,2.7,1.1-2.6,0-4.6-1.5-6.4-4.2-4.7-8.4-9.3-12.6-13.9-5.6-6.2-11.3-12.3-16.8-18.6-2.4-2.7-4.5-5.7-5.6-9.4,1.4-2.5,2.8-5.1,4.5-8,.8,1.2,1.4,1.9,1.6,2.7.7,2,2.2,3.2,4,4.2,3.1,1.7,6.2,0,6.3-3.4,0-2.2-.2-4.4-.7-6.5-1.7-7.1-2.4-14.3-2.4-21.6,0-1.9.2-3.7.3-5.9-.8-1-1.8-2.1-2.8-3.2h0ZM67.3,151h1.1c.6-1.3,1.6-2.6,1.9-4,.8-4,1.4-8,2.1-12,3.4-18.4,9.2-35.9,19.5-51.8,7-10.9,15.5-20.3,26.6-27.1,6.2-3.8,12.6-6.8,20.1-6.7.6,0,1.3-.2,2-.3,1.7-.2,2.8-1.1,3-2.9-2.3-8.6-2.5-10.4-.2-16.8,1-2.9,2.7-5.5,4.1-8.2,1.1-2,1.9-3.9.8-6.2-2.2,0-4,.8-5.1,2.6-1.4,2.3-2.7,4.8-4,7.2-2.7,4.9-3.5,10.1-2.5,15.6.2,1.1.3,2.1.5,3.5-1,.2-1.8.4-2.6.6-2.8.6-5.7.9-8.4,1.8-10.9,3.7-19.9,10.6-27.8,18.8-6.6,6.7-11.9,14.3-16.2,22.7-3.7,7-6.9,14.2-9.5,21.7-2.5,7.3-4.1,14.8-5.6,22.3-1,4.8-1.9,9.7-.8,14.7.4,1.5.8,3.1,1.3,4.6h0ZM282.5,55.7c-.3-.6-.4-1.1-.7-1.3-2.7-2.3-5.2-4.8-8.1-6.6-5.5-3.3-11.4-6.2-17-9.3-1.8-1-3.6-2.1-5.5-3.1-3.9-1.9-7.9-3.9-11.9-5.6-6.2-2.6-12.3-5.3-18.6-7.5-5.5-1.8-11.2-3-16.9-4.2-7.7-1.7-15.6-1.5-23.3-.4-7.6,1.1-14.8,3.8-21.4,8-4.7,3.1-8.4,7-11.3,12.2.8,1.2,1.6,2.4,2.3,3.3,2.4.3,3.2-1.2,4.2-2.3,1.3-1.6,2.5-3.4,4-4.7,8.4-7.2,18.6-9.8,29.3-10.3,9.4-.4,18.5,1.3,27.5,4.1,14.3,4.5,27.7,11.1,41,17.9,5.6,2.9,11,6,16.7,8.6,2.9,1.4,6.2,2.1,9.7.9h0ZM168.3,121.6c.5,1.2.7,2,1.2,2.6,1.5,2.2,2.9,4.4,4.6,6.3,1.3,1.4,3.1,2.1,5.1,1.4,1.9-.7,2.4-2.4,2.7-4.2.8-5.8-4.5-12-10.4-12.1-2.5,0-4.9.4-7.6.6,0-.6,0-1.3-.1-1.9-.1-10.1-.5-20.2-2.5-30.2-1.1-5.4-2.9-10.6-4.5-15.8-.4-1.5-1.2-2.9-3.1-3.1-1.8.8-1.7,2.3-1.4,3.9,1.3,6.3,2.6,12.7,3.7,19,.5,3.1.8,6.3,1.1,9.4.2,1.6.2,3.2.3,4.8-.1,6.6.7,13.3-.5,19.7-4.6,3.1-8.1,8.8-10,13.1-.8,1.7-1.2,3.6.3,5.3,2.7.5,3.4-1.8,4.2-3.4,2.9-6,8.2-9.6,13.1-13.6,1-.8,2.3-1.2,3.8-1.9ZM136,147.3c3.5-1.8,4.4-4.9,4.8-8,1.3-8.9,2.6-17.8,3.8-26.8,1.6-11.7,1.2-23.5-.5-35.2-.2-1.6-.9-2.7-2.9-2.8-.6.5-1.3,1.2-1.8,1.6,0,5.8,0,11.3,0,16.7,0,3.6-.1,7.2-.5,10.7-.6,6.2-1.4,12.4-2.2,18.6-.6,4.7-1.3,9.3-2.1,13.9-.7,3.8-.7,7.4,1.3,11.2h0ZM272.3,385c-2.7-2.1-5.3-4.1-7.9-6-1.7-1.3-3.2-2.7-5-3.7-8.6-4.8-16.9-3.7-24.7,1.8-1.3.9-2.4,2.2-3.4,3.5-1.7,2.4-.8,4.9,2.1,5.6,2.1.5,4.4.5,6.5.6,7.5.4,14.9.8,22.4,1,3.5.1,7,.1,10.1-2.7h0ZM216.8,347.7c-1.3.3-2.5.4-3.5,1-3.9,2.2-7.8,4.4-11.5,7-6.8,4.9-12.6,10.9-17.8,17.4-1.2,1.5-2.5,3.1-3.5,4.8-.8,1.3-1.7,3,.2,4.6,1.4-.4,3.1-1.3,4.5-1.1,2.9.4,4.5-1,6-3,4.3-5.5,9.3-10.6,14.6-15.1,3.4-2.9,6.8-5.9,10.3-8.8,1.3-1.1,2.6-2.1,2.5-4.2-.5-.7-1-1.5-1.9-2.7h0ZM318.1,111.2c-.6-2.4-1.2-4.5-3-5.9-10-8.1-19.9-16.3-29.9-24.3-4.6-3.7-9.4-7.3-14.2-10.8-1.1-.8-2.4-1.3-3.5-1.9-2,2.6-2,3.3-.2,5,2.7,2.6,5.4,5.2,8.2,7.6,9.5,7.8,19,15.6,28.5,23.4,2.2,1.8,4.3,3.7,6.6,5.4,2.1,1.5,4.3,2.6,7.4,1.5h0ZM181.9,106.5c2.9-3.1,2.3-6.4,1.7-9.5-.8-4.3-1.9-8.6-3.2-12.8-2.5-8.1-5.8-15.9-10.4-23-.7-1.2-1.9-2-3-3-.2-.2-.6-.1-1.2-.2-.5.6-1.1,1.2-1.7,1.8.3,1,.5,1.8.8,2.6,1.6,3.6,3.4,7.1,4.8,10.8,2.3,6.3,4.3,12.6,6.3,19,.6,2.1.8,4.3,1.3,6.4.6,2.9,2,5.5,4.4,7.8h0ZM199.1,382.1c2,1.6,3.1.2,4.3-1,3.4-3.3,6.6-6.8,10.2-9.9,3.8-3.3,8-6.2,12-9.2,1.7-1.3,2.9-2.6,2.2-4.9-1.5-.9-2.8-.6-4.1.2-1.5,1-2.8,2.1-4.3,3.1-7.2,5.1-13.7,10.9-19.5,17.6-1,1.2-1.5,2.4-.9,4.1h0ZM93.5,118.3c-1.5-.5-2.4.3-2.8,1.6-.4,1.4-.3,2.8-.9,4.1-2.7,6.9-3.2,14.3-4.5,21.5-.3,1.6-.3,3.2-.4,5.1,2.7-2.5,5.5-7,6.1-9.7,1.2-5.9,2.4-11.8,3.5-17.8.3-1.7.6-3.5-1-4.9ZM313.4,137.1c.3-2.1.1-2.7-1.1-3.9-2.2-2.1-4.4-4.2-6.7-6.2-2.1-1.9-4.3-3.7-7.4-3.5-1,2.1-1,3.2.9,4.9,3.2,2.9,6.5,5.5,9.8,8.2,1.3,1,2.7,1.4,4.5.5h0ZM297.6,158.6c1.2-1.8.5-3.3-.6-4.8-2.8-3.5-5.5-7-8.3-10.5-.9-1.1-2-1.9-3.6-1.9-1.5,1.9-.8,3.6.3,5.2,2.6,3.5,5.2,7,7.9,10.4,1.1,1.4,2.4,2.1,4.3,1.6h0ZM229.6,159.6c-3.2,0-5.2,3-8.1,3.5-1.5,2-2.3,3.8,0,5.8,3.3.1,6-.9,7.9-4,1.1-1.7,2.2-3.3.3-5.4h0ZM215.5,118.6c-1,.7-1.9,1.4-2.7,2-.2,3.4.6,4.7,2.7,4.9,1.9.2,3.5-1,3.8-2.8.3-1.8-.7-3.1-3.9-4.1h0ZM187,157.1c-3.3-.3-4.6.3-5.1,2-.4,1.5.3,3.3,1.5,3.9,1.5.7,3.6.3,4.5-.9,1.1-1.4.8-2.8-.9-5h0ZM224,112.5c-.1,3.1.4,4.1,2.3,4.5,1.7.4,3.2-.3,3.9-1.8.7-1.5.2-3.1-1.2-4-1.7-1.1-2.7-.8-4.9,1.3h0ZM229,124.6c-1.9,0-3.3,1.5-3.2,3.4,0,1.9,1.4,3.1,3.3,2.9,1.8-.1,3.1-1.5,3-3.3,0-1.8-1.3-3.2-3.1-3.1h0ZM182.9,143.8c-3.7.6-4.8,1.7-4.6,3.8.2,1.6,1.3,2.5,2.9,2.5,1.9,0,2.7-1.2,3.1-5-.3-.3-1-.9-1.4-1.3h0ZM167.7,154.9c.4,1.9,1,3.4,3,3.6,1.9.2,2.7-1.2,3.1-2.7-1.4-3.6-3.3-3.9-6.1-.9Z"/>
  <path d="M85.5,206.4c2.3,1.4,4.9,2.7,7.4,4.4,6.2,4.2,12.3,8.4,18.4,12.7,4.8,3.4,9.5,7.1,14.3,10.6,1.3,1,2.8,1.7,4.4,2.7,1.6-1.9,3.1-3.5,4.3-5.3,3.4-5.2,6.9-10.4,9.5-16.1,2.1-4.8,2.8-9.9,2.2-14.8-.6-6-2.2-11.9-3.6-17.8-1.7-7.2-5.1-13.8-8.4-20.3-5.1-10.2-10.3-20.4-15.4-30.6-1.8-3.5-3.7-7-5.5-10.5-.6-1.2-.9-2.4-1.6-4.4.5-.6,1.2-1.2,2.2-2.2,1.4,1.5,2.4,2.4,3.1,3.4,1,1.5,1.8,3,2.6,4.6,4.9,9,9.7,18,14.6,27,2.9,5.4,5.9,10.8,8.7,16.3,4.4,8.8,7.2,18.2,9,27.9,2.1,11.7.5,22.8-5.2,33.2-4.7,8.7-9.6,17.3-14.5,25.9-2.8,5-5.9,9.8-8.7,14.8-1.7,3.1-3,6.4-4.5,9.5-.7,1.5-1.4,3-2.2,4.4-1.3,2.4-1.7,4.7-.3,7,1.7.9,2.7,0,3.7-.8,4.5-3.6,8.9-7.1,13.3-10.7,3.8-3.1,7.7-6.2,11.5-9.3,4.1-3.3,8-6.8,12.2-9.9,4.8-3.5,9.8-6.6,14.7-9.9,3.4-2.4,6.8-4.9,10.1-7.3,2-1.4,3.9-3,6.9-2.1,2.1,2.8,4.4,5.7,6.7,8.7,4.7,6,9.8,11.6,15.8,16.3,1.6,1.2,3.5,2,5,2.9,2.3-1,3.3-2.4,3.7-4.2.6-2.7,1.2-5.4,1.4-8.1.7-7.2,1.2-14.5,1.7-21.7.2-2.3.8-4.3,2.8-5.8,2.7-.1,4.8.9,6.6,3,5.2,5.9,11.3,10.8,17.6,15.4,3,2.1,6.1,4.4,10.1,4.5,1.7-.7,2.7-1.9,2.8-3.7.1-2.4.4-4.8.1-7.2-.6-4.2-1.5-8.4-2.3-12.6-.6-2.8-.6-5.4.3-8.1,1.4-4.5,3.6-6,7.7-5.6,5.5.4,11.1,1.4,16.5,2.5,5.7,1.1,11.4,2.5,17,3.9,5,1.3,10,3,15,4.4,8.1,2.4,16.2,4.6,24.3,7.1,4.7,1.5,9.3,3.3,13.9,5,1.5.6,2.8,1.6,4.3,2.5-.5,15.1.4,29.9-.6,45.5.1,2.2.4,5.2.5,8.2,0,8,0,16,0,24,0,1.4-.5,2.8-.4,4.2,0,6.8.2,13.7.2,20.5,0,7,.3,14,0,20.9-.4,6.9,1.1,13.7-.5,20.8-1.6.6-3.3,1.1-5.4,1-2.7-.2-5.4.6-8.1.7-3.1.2-6.3,0-9.4,0-3.8,0-7.6.3-11.4.4-4.9,0-9.8,0-14.8,0-.7-1-1.5-2.3-2.4-3.7-.4-7.4-.8-14.9-1.2-22.8-4.6-2.3-9.1-4.9-13.9-7-9.2-4-18.5-7.7-28.2-10.3-3.9-1-7.9-1.7-11.9-2.2-4.6-.5-9.1-.9-13.7-.9-10.8-.2-21,2-30.9,6.6-7.1,3.3-13.4,7.7-19,12.9-6.9,6.6-12.9,14-17.6,22.4-1,1.9-2.4,3.6-3.4,5.5-1.8,1.7-4,2.3-6.6,2-2.3-.3-4.6.1-6.9,0-13.2-.2-26.3-.5-39.5-.8-8.5-.2-16.9-.3-25.4-.5-4.7-.1-9.4-.4-14.1-.7-2.7-.2-5.5-.5-8.2-.6-13-.6-23.7-6.4-32.6-15.4-2.8-2.9-5.5-6.2-6.9-10.3-.6-1.9-2-3.5-2.6-5.3-1.8-5.8-2.9-11.8-2.3-17.8.6-6.2,1.6-12.3,2.6-18.4.4-2.1,1.3-4.2,2-6.2,1.4-4.1,2.8-8.3,4.4-12.3,1.4-3.4,3.1-6.7,4.7-10,1.7-3.7,3.2-7.4,5.1-11,1.7-3.4,2.9-7.1,5-9.1,1.9-3.7,3.1-6.6,4.7-9.3,3.5-6.1,7.1-12.1,10.7-18.1.2-.3.3-.6.5-.9,6.1-8.9,11.5-18.3,17.2-27.5,1.2-1.9,2.1-4.2,4.4-5.2.4-.2.8-.3,1.7-.6h0ZM221.2,272.1c.2.3.2.6.4.7.3.3.7.5,1.1.7,4.7,2.3,9.7,3.3,14.9,3.5,3.3.1,6.5-.2,9.6-1.2,6.7-2,10.8-6.9,13.4-13.1.7-1.7,1.1-3.5,1.6-5-.5-.4-.5-.5-.6-.5-8.2-.5-14.6-4.7-20.6-9.7-3-2.5-6.2-4.7-9.8-7.4-.4,1-1,1.8-1.1,2.6-.5,4.7-.8,9.4-1.4,14-.8,5.9-2,11.7-7.5,15.4Z"/>
  <path d="M156.1,188.2c1.1,0,2-.2,2.8,0,3.4,1.3,7,1.7,10.2,4,3.5,2.6,7.8,4.1,11.9,5.8,5.6,2.3,11.4,3.8,17.3,5.1,7.5,1.6,15.1,2,22.5.3,11.4-2.5,20.3-8.8,27-18.5,6.1-8.9,9.4-18.8,11.1-29.3,1.4-8.4,1.1-16.8-.6-25.1-1.7-8.9-5.1-17.2-9.5-25.1-4.2-7.6-9-14.8-15.2-21.1-4.7-4.8-9.6-9.4-15.3-13-4.3-2.7-8.5-5.4-12.8-8.1-.5-.3-1.2-.5-1.7-.8-7.8,4.9-12.9,26.6-10.7,36.8,1.2-1.7,2.1-3.2,3.3-4.7,1.5-1.9,3.1-3.6,4.8-5.4,4.3-4.5,12.5-4.6,16.9,1.7,1.8,2.7,3.2,5.5,3.5,8.8.2,2.3,0,2.9-1.9,5.1-2.4.8-4.3.2-6.2-1.7-2.1-2.1-3.4-4.6-4.3-7.3-.3-1-.6-2.1-.9-3.3-3.2-.8-4.7,1.7-6.2,3.3-2.9,3-5.1,6.6-6.5,10.6-.3.9-.8,1.8-1.3,2.9,1.3,6.2,3.5,12.2,7.3,17.3,3.7,5,8.2,9.4,12.8,14.5-.5.5-1.2,1.2-2,2.1-1.9-1.1-3.4-1.8-4.6-2.8-7.2-5.7-12.4-13-16.1-21.3-3.9-8.7-5.4-17.9-5.3-27.3,0-7.2,1.5-14.1,4.2-20.9,1.5-3.9,3.3-7.6,6.2-11.3-1.4-.7-2.4-1.3-3.5-1.6-1.8-.6-3.6-.9-5.4-1.5-1.7-.5-2.5-1.6-1.8-3.6,6.6-2.5,12.2,1.8,18.1,2.5,3.8,2.2,7.6,4.4,11.4,6.6,1.6.9,3.1,1.9,4.7,3,2.2,1.4,4.5,2.7,6.5,4.4,3.6,2.9,7.2,5.9,10.6,9,5,4.6,9.3,9.6,12.5,15.6,1.3,2.5,3,4.8,4.4,7.2,6.1,10.2,10,21.2,11.4,33,.4,3.6,1.2,7.2,1.1,10.7-.4,7.2-.7,14.5-2.9,21.5-2.1,6.6-4.2,13.2-7.8,19.1-5.4,8.8-12.3,15.9-21.6,20.8-7.3,3.8-15,5.7-23.1,5.9-7.6.2-15.2-.6-22.5-2.8-8.9-2.7-17.4-6.1-25.2-11.3-1.8-1.2-3.4-2.7-5-4.3-1.5-1.5-2.3-3.4-2.6-5.7h0Z"/>
  <path d="M103.5,121.2c1,1.2,1.9,2.2,2.8,3.2-.1,2.2-.3,4-.3,5.9,0,7.3.7,14.5,2.4,21.6.5,2.1.8,4.4.7,6.5-.1,3.5-3.3,5.1-6.3,3.4-1.7-1-3.3-2.2-4-4.2-.3-.8-.9-1.5-1.6-2.7-1.6,2.9-3.1,5.5-4.5,8,1.1,3.7,3.2,6.7,5.6,9.4,5.5,6.3,11.2,12.4,16.8,18.6,4.2,4.6,8.5,9.2,12.6,13.9,1.6,1.8,2.6,3.8,1.5,6.4-2.7.5-4.5-1-6-2.7-5.7-5.9-11.6-11.6-17-17.8-5.2-5.9-9.8-12.3-14.7-18.5-.7-.9-1.2-2-2-3.5-1.1.9-2.1,1.5-2.8,2.3-2.1,2.4-4.1,4.8-6.2,7.3-3.6,4.2-7.8,7.7-12.6,10.4h-5.2c.2-3.4,1.9-5.7,4.1-7.4,11.1-8.9,19.4-20.3,26.8-32.2,1.3-2.1,2.1-4.2,2.5-6.7.7-4.7,1.8-9.3,2.8-13.9.6-2.6,1.4-5.1,4.6-7.3h0Z"/>
  <path d="M67.3,151c-.4-1.5-.9-3.1-1.3-4.6-1.2-5-.2-9.9.8-14.7,1.5-7.5,3.1-15,5.6-22.3,2.6-7.5,5.8-14.7,9.5-21.7,4.3-8.3,9.7-16,16.2-22.7,8-8.2,16.9-15,27.8-18.8,2.7-.9,5.6-1.2,8.4-1.8.8-.2,1.6-.4,2.6-.6-.2-1.3-.3-2.4-.5-3.5-1-5.5-.1-10.7,2.5-15.6,1.3-2.4,2.6-4.8,4-7.2,1.1-1.8,2.9-2.5,5.1-2.6,1.1,2.3.3,4.3-.8,6.2-1.5,2.7-3.1,5.3-4.1,8.2-2.3,6.4-2.1,8.1.2,16.8-.2,1.8-1.3,2.6-3,2.9-.6,0-1.3.3-2,.3-7.5-.1-13.9,3-20.1,6.7-11.1,6.8-19.6,16.2-26.6,27.1-10.3,15.9-16.1,33.4-19.5,51.8-.7,4-1.3,8-2.1,12-.3,1.4-1.2,2.7-1.9,4.1h-1.1c0,0,0,0,0,0Z"/>
  <path d="M282.5,55.7c-3.5,1.1-6.8.4-9.7-.9-5.7-2.6-11.1-5.7-16.7-8.6-13.3-6.9-26.7-13.5-41-17.9-9-2.8-18.1-4.5-27.5-4.1-10.7.5-20.9,3.1-29.3,10.3-1.6,1.3-2.7,3.1-4,4.7-1,1.2-1.8,2.6-4.2,2.3-.6-.9-1.5-2.1-2.3-3.3,2.9-5.3,6.6-9.2,11.3-12.2,6.6-4.2,13.8-6.9,21.4-8,7.7-1.2,15.6-1.3,23.3.4,5.7,1.3,11.4,2.4,16.9,4.2,6.3,2.1,12.5,4.8,18.6,7.5,4,1.7,8,3.6,11.9,5.6,1.9.9,3.6,2.1,5.5,3.1,5.7,3.1,11.5,6,17,9.3,3,1.8,5.5,4.4,8.1,6.6.3.2.4.7.7,1.3h0Z"/>
  <path d="M168.3,121.6c-1.5.7-2.8,1.1-3.8,1.9-4.9,4-10.2,7.6-13.1,13.6-.8,1.6-1.4,3.9-4.2,3.4-1.5-1.7-1.1-3.6-.3-5.3,1.9-4.3,5.4-10,10-13.1,1.2-6.4.3-13.1.5-19.7-.1-1.6-.2-3.2-.3-4.8-.3-3.1-.5-6.3-1.1-9.4-1.1-6.4-2.4-12.7-3.7-19-.3-1.6-.4-3.1,1.4-3.9,1.9.2,2.6,1.6,3.1,3.1,1.6,5.3,3.4,10.5,4.5,15.8,2,9.9,2.4,20.1,2.5,30.2,0,.6,0,1.3.1,1.9,2.6-.2,5.1-.6,7.6-.6,5.8.1,11.1,6.3,10.4,12.1-.2,1.8-.8,3.5-2.7,4.2-2,.7-3.9,0-5.1-1.4-1.7-1.9-3.2-4.2-4.6-6.3-.4-.6-.6-1.4-1.2-2.6Z"/>
  <path d="M136,147.3c-2.1-3.9-2-7.4-1.3-11.2.8-4.6,1.5-9.3,2.1-13.9.8-6.2,1.6-12.4,2.2-18.6.4-3.6.4-7.2.5-10.7,0-5.5,0-10.9,0-16.7.5-.5,1.2-1.1,1.8-1.6,2,.2,2.7,1.3,2.9,2.8,1.6,11.7,2,23.4.5,35.2-1.2,8.9-2.5,17.9-3.8,26.8-.5,3.2-1.3,6.2-4.8,8h0Z"/>
  <path d="M272.3,385c-3.1,2.8-6.6,2.8-10.1,2.7-7.5-.3-14.9-.6-22.4-1-2.2-.1-4.4,0-6.5-.6-2.9-.6-3.8-3.2-2.1-5.6.9-1.3,2.1-2.6,3.4-3.5,7.9-5.5,16.1-6.6,24.7-1.8,1.8,1,3.4,2.4,5,3.7,2.6,2,5.2,3.9,7.9,6h0Z"/>
  <path d="M216.8,347.8c.9,1.2,1.5,2,1.9,2.7,0,2.1-1.2,3.2-2.5,4.2-3.4,2.9-6.9,5.9-10.3,8.8-5.4,4.6-10.3,9.6-14.6,15.1-1.6,2-3.1,3.4-6,3-1.5-.2-3.1.7-4.5,1.1-1.9-1.7-1-3.3-.2-4.6,1-1.7,2.2-3.3,3.5-4.8,5.2-6.5,11-12.5,17.8-17.4,3.6-2.6,7.6-4.8,11.5-7,1-.6,2.2-.6,3.5-1h0Z"/>
  <path d="M318.1,111.2c-3.1,1.1-5.3,0-7.4-1.5-2.3-1.7-4.4-3.6-6.6-5.4-9.5-7.8-19.1-15.5-28.5-23.4-2.9-2.4-5.5-5-8.2-7.6-1.8-1.7-1.8-2.5.2-5,1.1.6,2.5,1.1,3.5,1.9,4.8,3.5,9.5,7.1,14.2,10.8,10,8,20,16.2,29.9,24.3,1.8,1.5,2.4,3.5,3,5.9h0Z"/>
  <path d="M181.9,106.5c-2.4-2.4-3.8-4.9-4.4-7.8-.4-2.1-.6-4.3-1.3-6.4-2-6.4-4-12.7-6.3-19-1.4-3.7-3.2-7.2-4.8-10.8-.3-.8-.5-1.6-.8-2.6.6-.7,1.2-1.3,1.7-1.8.5,0,1,0,1.2.2,1,1,2.2,1.8,3,3,4.6,7.2,7.9,14.9,10.4,23,1.3,4.2,2.4,8.5,3.2,12.8.6,3.1,1.1,6.3-1.7,9.5h0Z"/>
  <path d="M199.1,382.1c-.6-1.7,0-3,.9-4.1,5.8-6.6,12.3-12.5,19.5-17.6,1.4-1,2.8-2.1,4.3-3.1,1.3-.9,2.6-1.2,4.1-.2.6,2.3-.5,3.6-2.2,4.9-4.1,3-8.2,5.9-12,9.2-3.6,3.1-6.8,6.6-10.2,9.9-1.2,1.2-2.3,2.5-4.3,1h0Z"/>
  <path d="M93.5,118.3c1.6,1.3,1.3,3.2,1,4.9-1.1,5.9-2.3,11.8-3.5,17.8-.5,2.6-3.4,7.2-6.1,9.7.2-1.9.2-3.5.4-5.1,1.2-7.2,1.7-14.6,4.5-21.5.5-1.3.4-2.8.9-4.1.4-1.3,1.3-2.1,2.8-1.6Z"/>
  <path d="M313.4,137c-1.8.9-3.3.5-4.5-.5-3.3-2.7-6.7-5.3-9.8-8.2-1.9-1.7-1.9-2.8-.9-4.9,3.1-.1,5.3,1.7,7.4,3.5,2.3,2,4.5,4.1,6.7,6.2,1.2,1.1,1.4,1.7,1.1,3.9h0Z"/>
  <path d="M297.5,158.6c-1.9.6-3.3-.2-4.3-1.6-2.7-3.5-5.3-6.9-7.9-10.4-1.1-1.5-1.8-3.3-.3-5.2,1.6,0,2.7.7,3.6,1.9,2.8,3.5,5.6,7,8.3,10.5,1.2,1.5,1.8,3,.6,4.8h0Z"/>
  <path d="M229.6,159.6c2,2,.8,3.6-.3,5.4-1.9,3.1-4.6,4.1-7.9,4-2.2-2.1-1.4-3.9,0-5.8,2.8-.6,4.8-3.5,8.1-3.5h0Z"/>
  <path d="M215.5,118.6c3.1,1,4.2,2.2,3.9,4.1-.3,1.8-2,3-3.8,2.8-2.2-.3-2.9-1.5-2.7-4.9.8-.6,1.7-1.3,2.7-2h0Z"/>
  <path d="M187,157.1c1.8,2.2,2,3.6.9,5-.9,1.2-3,1.6-4.5.9-1.3-.6-2-2.5-1.5-3.9.5-1.7,1.8-2.2,5.1-2h0Z"/>
  <path d="M224,112.5c2.2-2.1,3.3-2.4,4.9-1.3,1.4.9,1.9,2.5,1.2,4-.6,1.4-2.1,2.1-3.9,1.8-1.9-.4-2.4-1.4-2.3-4.5h0Z"/>
  <path d="M229,124.6c1.8,0,3.1,1.3,3.1,3.1,0,1.7-1.3,3.1-3,3.3-1.8.1-3.2-1-3.3-2.9-.1-1.9,1.3-3.4,3.2-3.4h0Z"/>
  <path d="M182.9,143.8c.4.4,1.1,1,1.4,1.3-.4,3.8-1.2,4.9-3.1,5-1.6,0-2.7-.9-2.9-2.5-.2-2.1.9-3.2,4.6-3.8h0Z"/>
  <path d="M167.7,154.9c2.8-3,4.7-2.7,6.1.9-.4,1.6-1.3,2.9-3.1,2.7-2-.2-2.6-1.7-3-3.6Z"/>
  <path d="M236.1,254.5c2.9-.8,5-.2,6.1,1.6.9,1.5.6,5.5-.6,6.9-1.1,1.4-2.8,1.6-4.4.6-3.2-2-3.7-5.6-1.1-9.1Z"/>
  <path d="M358.8,381.7l37.2-19.9c20.9-11.1,33-33.6,31-57.2h0c-1.7-19.4-12.9-36.7-29.9-46.2l-37.4-20.9-22.7,56.4,3.9,65.9,17.9,21.9Z"/>
</svg>