<svg width="388" height="674" viewBox="0 0 388 674" fill="none" xmlns="http://www.w3.org/2000/svg">
<path d="M211.656 673.261C188.659 673.261 167.682 663.611 150.993 645.338C139.077 632.302 134.642 617.505 131.415 604.661C126.45 584.898 126.924 565.914 127.341 549.176C127.386 547.382 127.431 545.587 127.465 543.804C127.714 532.179 129.101 521.197 130.433 510.576L130.456 510.362C131.121 505.046 131.877 499.809 132.611 494.752C133.231 490.486 133.807 486.468 134.337 482.427C135.59 472.902 136.921 465.565 138.67 458.635C139.72 454.482 140.645 450.136 141.627 445.543C142.62 440.87 143.658 436.039 144.888 431.073C148.499 416.514 152.279 403.602 156.42 391.593C162.559 373.828 170.559 356.074 180.207 338.794L180.275 338.67C180.839 337.654 181.652 336.198 182.78 334.516C181.392 327.88 180.895 321.695 181.053 315.961C169.329 313.794 158.113 309.584 147.517 303.365C130.467 293.354 116.87 279.156 104.717 258.671C95.7795 243.603 88.1627 228.197 82.0468 212.824C70.7401 211.052 60.4716 207.531 50.9703 202.192C32.0243 191.572 18.3931 175.251 9.29815 152.294C4.32186 139.721 2.38099 127.362 0.947913 116.764C-1.35404 99.6874 2.57282 84.5521 5.73237 74.665C12.1417 54.5636 23.5048 37.5772 39.4944 24.2026C51.5233 14.1349 66.1475 7.0921 82.9608 3.26594C91.6044 1.29078 100.587 0.331421 110.404 0.331421C121.146 0.331421 131.516 1.50523 140.374 2.61131C149.334 3.72869 158.835 4.27045 169.42 4.27045C178.469 4.27045 188.264 3.8867 200.27 3.05149L200.756 3.01763C208.384 2.48716 216.282 1.93412 224.621 1.93412C236.165 1.93412 246.355 3.04021 255.788 5.33139C283.231 11.9792 304.265 29.4283 316.621 55.8051C325.546 74.8569 329.8 95.7145 329.643 119.563C329.62 122.441 329.981 123.367 329.992 123.378C340.08 139.157 342.811 157.96 337.643 176.256C332.339 195.07 319.092 211.526 301.917 220.849C302.854 226.842 303.091 233.039 302.662 239.664C305.72 240.454 309.117 241.616 312.649 243.422C315.165 244.72 317.49 246.244 319.611 247.96C326.957 249.754 335.962 253.783 344.086 262.892C358.789 279.381 372.161 311.616 360.651 424.595C361.261 425.904 361.757 427.146 362.163 428.308C363.788 429.324 365.357 430.464 366.857 431.728C374.869 438.5 380.985 447.416 385.047 458.218C388.963 468.658 388.421 479.831 384.066 489.448C384.991 498.443 382.712 507.687 377.442 515.689C371.935 524.064 365.075 528.533 360.967 531.208C360.459 531.535 359.771 531.987 359.545 532.156C350.8 538.883 342.608 547.63 333.93 556.885C331.008 560.012 327.984 563.239 324.881 566.445C323.301 568.07 321.845 569.447 320.559 570.655C320.265 570.926 319.938 571.242 319.611 571.546C319.634 573.002 319.701 574.594 319.769 576.242C319.961 581.061 320.186 586.512 319.713 592.63C317.523 620.937 303.147 642.878 278.119 656.072C268.81 660.981 259.568 663.419 252.155 665.395C250.033 665.959 248.036 666.489 246.197 667.031L245.565 667.223C237.023 669.74 227.33 672.584 215.978 673.171C214.533 673.25 213.078 673.284 211.645 673.284L211.656 673.261Z" fill="white"/>
<path d="M158.951 564.803C158.784 527.355 164.659 492.939 171.607 458.762C179.126 421.72 190.412 385.848 209.479 352.864C210.004 351.957 210.79 351.086 211.648 350.477C223.065 342.386 213.448 332.613 213.305 323.83C213.15 314.092 213.579 305.106 219.347 296.991C220.276 295.69 221.956 294.115 219.919 292.826C216.534 290.69 217.19 284.091 211.338 284.962C180.997 289.497 152.444 274.914 135.784 248.243C122.901 227.622 112.128 206.285 105.61 182.859C104.919 180.401 103.286 180.986 101.749 181.045C59.2403 182.74 37.2652 154.362 32.4268 116.76C29.4357 93.5133 36.2046 72.6893 51.1367 55.1113C61.016 43.4881 74.1129 36.328 89.4144 32.7002C115.549 26.5067 140.992 35.254 166.78 34.9079C186.122 34.6453 205.439 32.8911 224.793 32.5808C245.826 32.2348 265.478 36.7814 279.576 54.085C290.921 68.0352 295.39 84.945 297.63 102.38C298.917 112.332 296.963 123.168 300.24 132.249C302.933 139.72 308.963 145.961 308.963 154.911C308.963 171.582 301.539 183.611 287.369 191.893C284.08 193.814 279.218 194.697 277.955 192.072C276.167 188.361 278.289 183.647 282.531 181.415C294.663 175.031 301.253 159.863 297.141 146.593C295.33 140.758 289.824 138.383 284.938 139.409C280.612 140.316 273.355 139.171 273.867 148.634C274.344 157.381 274.237 168.79 262.355 170.198C249.449 171.737 246.16 160.389 243.121 150.722C241.012 143.98 240.035 136.88 238.533 129.958C237.747 126.354 236.96 124.684 231.86 125.411C215.819 127.691 201.292 122.87 189.041 112.249C186.396 109.958 184.87 109.814 182.725 112.046C167.221 128.12 145.83 122.345 131.958 110.328C128.717 107.523 126.119 110.793 125.607 111.306C122.615 114.289 119.16 115.972 115.215 116.187C100.771 116.986 106.42 127.094 107.552 133.884C111.962 160.46 117.074 186.905 128.884 211.488C138.12 230.701 147.105 250.2 164.504 263.649C188.219 281.991 220.896 282.277 243.038 253.136C251.272 242.3 257.708 230.844 261.056 217.693C261.521 215.867 262.665 214.877 264.191 215.223C267.194 215.915 269.684 217.586 270.233 220.951C274.082 244.77 266.8 265.797 253.465 285.034C249.056 291.406 243.36 296.872 238.378 302.862C236.626 304.963 234.267 304.915 232.396 304.283C224.09 301.419 224.054 308.018 223.41 312.541C221.492 325.966 227.176 337.935 231.705 350.036C234.565 357.697 237.711 365.251 240.642 372.888C241.608 375.406 242.049 378.736 239.379 379.726C236.638 380.74 233.766 378.461 232.408 375.895C229.452 370.311 226.938 364.475 224.221 358.759C223.601 357.446 222.85 356.193 222.159 354.916C220.943 356.026 219.323 356.909 218.572 358.27C207.155 379.082 198.492 400.92 191.77 423.796C181.426 459.036 175.623 495.004 171.535 531.317C169.354 550.697 168.139 570.376 171.881 589.636C176.135 611.546 185.717 630.544 213.15 631.905C230.68 632.776 245.755 623.67 261.736 617.847C280.16 611.14 270.757 598.419 269.553 588.634C265.823 558.227 260.02 528.095 265.966 497.283C272.27 464.645 291.171 442.532 321.333 429.704C323.967 428.582 328.936 427.365 330.128 430.813C331.379 434.441 326.875 437.126 324.014 438.403C288.621 454.179 273.629 483.01 271.508 520.052C270.971 529.384 272.068 538.74 274.678 547.75C277.025 555.841 281.828 555.471 286.738 550.112C296.832 539.122 306.282 527.51 316.721 516.854C322.823 510.625 330.307 505.756 337.171 500.266C337.814 499.753 338.387 499.18 339.006 498.631C338.148 498.846 337.207 498.894 336.444 499.3C328.674 503.464 320.868 507.57 313.218 511.949C310.727 513.381 308.57 515.386 306.377 511.949C304.339 508.751 305.805 506.006 308.343 504.073C317.365 497.235 326.529 490.576 335.646 483.87C336.075 483.559 336.635 483.44 337.052 483.118C340.055 480.767 343.034 478.392 346.013 476.017C341.795 477.211 337.278 477.796 333.429 479.729C324.61 484.132 316.078 489.132 307.497 494.013C305.328 495.242 303.1 495.922 301.884 493.464C300.871 491.412 300.228 488.715 303.1 486.996C314.552 480.146 325.993 473.273 337.433 466.399C338.005 466.065 338.553 465.695 339.113 465.349C338.22 465.253 337.302 464.967 336.432 465.086C323.752 466.888 312.383 472.044 301.694 478.87C298.917 480.648 295.878 483.989 292.923 480.504C289.908 476.948 292.196 472.771 294.949 470.051C304.268 460.874 313.837 451.924 323.55 443.153C326.1 440.849 327.077 432.985 331.665 437.365C335.932 441.434 330.748 446.351 327.208 449.871C322.978 454.084 318.604 458.141 314.29 462.27C319.677 460.587 325.051 458.845 330.462 457.234C337.266 455.205 345.275 453.368 349.696 459.501C352.413 463.272 355.893 468.07 356.739 472.736C357.859 478.941 351.889 482.115 347.479 485.505C346.705 486.101 346.276 487.163 345.68 487.999C346.538 488.202 347.42 488.381 348.266 488.619C350.542 489.252 352.663 490.182 353.235 492.784C354.403 498.142 350.804 501.495 347.229 503.846C327.327 516.89 313.265 535.888 296.403 551.974C284.509 563.311 289.181 574.385 289.05 585.829C288.764 612.369 275.262 628.766 248.71 635.485C237.127 638.42 225.925 642.692 213.817 643.385C191.997 644.614 170.129 628.515 164.349 607.25C160.357 592.548 158.295 577.691 158.927 564.815L158.951 564.803Z" fill="black"/>
<path d="M250.474 370.657C252.381 356.157 254.109 342.171 256.111 328.221C256.599 324.796 259.543 324.892 261.831 326.097C272.044 331.455 282.233 336.754 293.28 340.334C296.796 341.467 303.791 342.255 301.539 347.303C299.298 352.327 292.613 349.534 288.347 347.995C280.41 345.143 273.009 340.763 265.025 338.114C262.725 337.35 263.309 341.992 262.963 344.045C261.509 352.768 260.806 361.623 259.233 370.311C258.768 372.888 258.578 376.993 253.99 376.802C248.794 376.588 252.786 371.91 250.486 370.645L250.474 370.657Z" fill="black"/>
<path d="M223.1 151.08C223.911 160.138 222.493 164.732 217.714 167.298C215.628 168.42 212.709 168.611 210.909 166.319C206.798 161.093 204.903 155.305 206.714 148.539C207.251 146.522 210.611 144.314 207.847 142.464C204.915 140.507 201.113 140.615 197.634 141.951C190.984 144.505 185.967 149.195 181.462 154.493C180.044 156.164 178.256 156.868 176.564 155.699C174.705 154.41 175.182 152.131 176.111 150.484C181.522 140.889 189.315 133.598 200.351 132.333C211.66 131.032 218.822 137.798 222.54 148.192C223.303 150.317 223.422 152.668 223.124 151.068L223.1 151.08Z" fill="black"/>
<path d="M166.601 164.947C167.066 169.184 167.46 170.437 167.281 171.582C166.637 175.711 166.542 180.27 161.68 182.107C159.07 183.098 156.639 182.131 155.137 180.055C151.503 175.007 150.585 169.434 153.087 163.539C153.517 162.525 153.946 161.51 154.375 160.496C153.159 160.46 151.872 160.174 150.728 160.436C141.969 162.453 136.201 168.229 131.899 175.759C130.254 178.623 130.421 184.423 125.642 182.823C120.018 180.938 124.224 176.272 124.975 172.954C128.002 159.673 147.069 148.36 158.617 152.62C165.994 155.353 165.732 162.023 166.613 164.935L166.601 164.947Z" fill="black"/>
<path d="M205.141 547.857C204.593 547.404 203.032 546.747 202.841 545.828C202.389 543.549 202.698 541.019 204.855 539.623C219.299 530.339 233.766 521.102 248.317 511.985C250.331 510.72 252.25 511.901 253.704 513.656C255.038 515.267 254.705 517.069 253.286 517.987C238.211 527.88 223.053 537.654 207.894 547.427C207.37 547.762 206.56 547.654 205.153 547.857H205.141Z" fill="black"/>
<path d="M141.48 120.471C145.067 120.769 147.689 122.285 148.356 125.435C149.083 128.872 146.998 130.853 143.78 132.369C137.452 135.364 131.375 138.92 125.19 142.214C122.747 143.515 120.458 144.445 117.908 141.999C115.239 139.445 116.192 136.378 117.634 134.576C123.795 126.855 131.97 122.213 141.468 120.471H141.48Z" fill="black"/>
<path d="M208.323 525.159C207.322 524.634 204.689 523.966 204.629 523.119C204.283 518.131 208.669 516.114 212.053 514.861C216.772 513.119 222.064 512.725 227.152 512.319C228.952 512.176 230.084 514.217 230.406 516.293C230.835 519.121 228.368 520.159 226.902 520.601C221.051 522.379 215.021 523.572 208.335 525.148L208.323 525.159Z" fill="black"/>
<path d="M297.022 280.547C291.421 276.943 282.007 279.843 278.575 271.191C277.752 269.103 281.47 267.348 282.746 267.885C289.848 270.881 299.799 268.017 303.767 276.967C304.709 279.103 300.347 280.189 297.022 280.559V280.547Z" fill="black"/>
<path d="M286.857 366.003C286.702 373.377 283.782 375.967 278.992 375.991C273.081 376.027 272.187 371.337 272.175 366.957C272.175 362.339 275.202 359.964 279.79 360.251C284.64 360.549 286.952 363.365 286.845 366.003H286.857Z" fill="black"/>
<path d="M193.618 242.67C191.246 242.67 187.456 241.906 186.801 238.469C186.134 234.913 189.673 234.758 191.77 234.507C195.906 234.018 197.586 227.55 202.555 230.068C204.617 231.106 205.32 233.66 204.224 235.808C202.067 240.021 195.977 242.67 193.618 242.67Z" fill="black"/>
<path d="M186.181 195.21C183.536 198.086 188.684 205.068 181.629 206.571C179.043 207.12 177.22 203.934 178.125 201.428C179.615 197.311 176.278 190.998 182.594 189.256C185.18 188.54 186.539 191.583 186.169 195.21H186.181Z" fill="black"/>
</svg>
