<svg width="383" height="405" viewBox="0 0 383 405" fill="none" xmlns="http://www.w3.org/2000/svg">
<path d="M112.476 404.363C108.052 404.363 105.026 404.345 103.226 404.309C94.4917 404.132 82.9509 403.857 71.1206 403.278C70.3655 403.241 69.6104 403.205 68.8552 403.174C61.8137 402.857 53.8409 402.503 45.4087 399.679C32.408 395.324 21.3391 387.571 12.5105 376.646C10.1822 373.767 8.77891 370.9 7.7532 368.808C7.58959 368.472 7.41969 368.131 7.24979 367.795C5.41232 364.184 3.12807 359.689 1.81919 354.174C-0.056029 346.251 -0.307737 337.937 1.07666 329.458C1.50456 326.841 1.90729 324.224 2.31632 321.602C2.59949 319.784 2.87636 317.96 3.16583 316.142C3.34832 315.008 3.64407 313.111 4.45583 310.909C5.00959 309.39 5.55705 307.865 6.10452 306.334C8.62159 299.301 11.2205 292.03 14.9961 284.722C16.5189 281.77 17.9599 278.714 19.4891 275.481C20.6973 272.913 21.9495 270.26 23.2773 267.6C24.2841 265.581 25.379 263.971 26.1845 262.793C26.3922 262.488 26.669 262.08 26.7949 261.885C32.9743 249.502 40.3934 238.144 47.5734 227.152C49.8828 223.621 52.2677 219.967 54.5331 216.392C55.9363 214.178 57.3207 211.952 58.7114 209.725C59.0386 209.201 59.3596 208.682 59.6868 208.158C59.1645 208.133 62.6632 203.418 55.2127 204.9C47.7621 206.383 40.8213 198.386 41.7589 189.968C42.6965 181.55 45.7862 175.329 52.0034 170.54C53.0857 169.705 54.1555 168.832 55.2127 167.917C51.5629 165.746 48.6683 162.306 47.1077 158.005C44.4459 150.673 43.8732 142.884 45.4087 134.863C47.7307 122.73 50.9588 108.463 57.3459 94.6223C62.1409 84.2282 68.3392 72.1262 77.9796 61.2259C87.3243 50.655 97.0717 42.8046 107.769 37.2354C110.966 35.5702 114.288 34.1611 117.712 33.0144C118.511 27.61 120.449 22.3398 123.514 17.2586C124.074 16.3254 124.621 15.3799 125.162 14.4344C125.666 13.5561 126.175 12.6838 126.691 11.8115C130.656 5.11395 137.811 0.935594 145.802 0.624504L146.526 0.612305C151.78 0.612305 156.915 2.80823 160.615 6.6328C160.999 7.02928 161.364 7.43797 161.704 7.85885C171.156 4.29658 181.123 2.49714 191.368 2.49714C197.497 2.49714 203.846 3.14372 210.252 4.42467C233.673 9.10321 253.854 18.7409 268.824 26.6157C270.265 27.3782 271.719 28.1163 273.173 28.8604C276.999 30.8185 280.95 32.8436 284.946 35.2286C288.42 37.3086 291.258 39.6022 293.756 41.6273C294.499 42.2312 295.241 42.8289 295.99 43.4145C298.973 45.7324 300.477 48.3432 301.043 49.3313L301.081 49.3984C300.993 49.252 300.898 49.0934 300.785 48.9348L294.203 66.185C306.146 75.4018 317.775 84.4356 328.68 92.9082C329.077 93.2193 329.454 93.4938 329.801 93.75C331.814 95.2383 334.564 97.2757 336.848 100.673C339.189 104.162 341.568 109.939 339.617 117.655L332.016 126.969C332.563 127.799 332.953 128.513 333.224 128.995L333.324 129.171C333.268 129.068 333.205 128.97 333.142 128.866L335.753 139.224C335.055 148.404 328.215 155.553 319.342 156.889L319.694 158.554C319.694 162.83 318.562 166.679 316.315 169.985C312.735 175.261 306.694 178.409 300.149 178.409C297.941 178.409 295.726 178.049 293.561 177.348C290.024 176.195 286.771 174.194 284.223 171.614C281.668 181.325 278.144 189.761 273.563 197.099C281.479 198.062 288.69 199.148 295.6 200.417C306.958 202.503 317.712 205.681 328.108 208.762C331.254 209.695 334.514 210.652 337.673 211.555C344.305 213.44 350.806 215.557 357.086 217.606C359.792 218.491 362.491 219.369 365.203 220.229C366.097 220.516 366.802 220.796 367.217 220.961L367.305 220.998C370.621 222.321 375.637 224.316 379.293 229.623C382.949 234.93 382.93 240.175 382.917 243.652L382.886 250.777C382.848 259.262 382.81 268.033 382.81 276.646C382.81 282.88 382.829 289.108 382.848 295.342C382.867 301.082 382.886 306.828 382.886 312.568C382.886 321.138 382.873 329.708 382.861 338.272C382.854 344.677 382.842 351.088 382.842 357.493C382.842 359.811 382.854 362.129 382.861 364.446C382.879 368.338 382.898 372.358 382.861 376.372C382.829 379.452 382.439 382.258 382.118 384.509L382.087 384.74C381.155 391.371 376.354 397.233 369.847 399.667C367.148 400.673 364.436 401.271 361.786 401.454C349.157 402.314 335.646 402.729 320.487 402.729C318.618 402.729 316.743 402.723 314.874 402.71C314.302 402.71 311.709 402.741 307.518 402.784C177.159 404.095 129.492 404.37 112.457 404.37L112.476 404.363Z" fill="white"/>
<path d="M156.124 188.22C156.388 190.55 157.249 192.456 158.704 193.965C160.226 195.54 161.867 197.049 163.667 198.266C171.396 203.468 179.959 206.857 188.853 209.518C196.198 211.728 203.782 212.456 211.352 212.284C219.425 212.099 227.207 210.206 234.473 206.394C243.711 201.536 250.633 194.388 256.033 185.612C259.699 179.656 261.803 173.064 263.881 166.472C266.091 159.496 266.422 152.23 266.792 145.016C266.978 141.455 266.157 137.855 265.72 134.268C264.278 122.46 260.413 111.487 254.286 101.308C252.83 98.8861 251.175 96.5697 249.839 94.0812C246.609 88.1115 242.282 83.0155 237.319 78.4621C233.904 75.325 230.304 72.36 226.678 69.4744C224.64 67.8596 222.377 66.5359 220.193 65.1196C218.644 64.1136 217.083 63.1076 215.481 62.1678C211.709 59.9441 207.911 57.76 204.086 55.5363C198.131 54.8745 192.532 50.5593 185.968 53.0743C185.214 55.0201 186.047 56.1055 187.755 56.6349C189.541 57.1909 191.394 57.5483 193.168 58.1174C194.253 58.4616 195.245 59.0705 196.662 59.7323C193.763 63.3724 192.056 67.0918 190.507 70.9834C187.808 77.7473 186.405 84.6965 186.325 91.8575C186.219 101.282 187.662 110.495 191.593 119.191C195.365 127.53 200.553 134.784 207.739 140.502C208.983 141.481 210.479 142.143 212.371 143.268C213.231 142.395 213.88 141.733 214.409 141.19C209.817 136.041 205.37 131.62 201.625 126.683C197.76 121.574 195.563 115.538 194.293 109.383C194.795 108.297 195.285 107.437 195.616 106.51C197.045 102.513 199.229 98.9258 202.114 95.8814C203.702 94.2136 205.211 91.7119 208.361 92.559C208.665 93.7238 208.904 94.796 209.235 95.8285C210.095 98.5949 211.431 101.057 213.523 103.148C215.349 104.988 217.334 105.624 219.677 104.816C221.609 102.592 221.808 102.063 221.596 99.72C221.278 96.4506 219.889 93.618 218.049 90.9442C213.655 84.5774 205.41 84.6965 201.148 89.2234C199.507 90.9574 197.892 92.7311 196.384 94.5842C195.232 96.0005 194.279 97.5625 193.115 99.2435C190.904 89.0778 196.092 67.383 203.835 62.459C204.351 62.6973 204.999 62.8958 205.542 63.24C209.817 65.9403 214.065 68.667 218.327 71.3805C224.018 75.0073 228.915 79.5872 233.613 84.3788C239.741 90.6265 244.532 97.8669 248.78 105.478C253.187 113.38 256.549 121.746 258.296 130.614C259.924 138.9 260.215 147.319 258.865 155.737C257.171 166.287 253.822 176.135 247.748 185.056C241.117 194.798 232.144 201.099 220.775 203.574C213.351 205.189 205.727 204.819 198.236 203.23C192.347 201.973 186.524 200.45 180.965 198.147C176.889 196.453 172.601 194.878 169.08 192.323C165.891 190.007 162.278 189.596 158.89 188.286C158.148 187.995 157.196 188.246 156.124 188.246V188.22ZM103.542 121.163C100.379 123.414 99.5186 125.889 98.9495 128.483C97.9304 133.089 96.8452 137.696 96.1305 142.355C95.7467 144.83 94.9526 147.014 93.6556 149.079C86.178 161.045 77.946 172.362 66.8156 181.297C64.6318 183.058 62.8981 185.334 62.6863 188.71H67.8743C72.6521 186.062 76.8475 182.581 80.4341 178.359C82.4855 175.923 84.4972 173.461 86.6147 171.078C87.3559 170.245 88.3485 169.622 89.4337 168.749C90.241 170.192 90.7043 171.317 91.4189 172.23C96.2629 178.438 100.935 184.792 106.109 190.722C111.522 196.903 117.385 202.674 123.143 208.551C124.731 210.179 126.531 211.688 129.191 211.212C130.329 208.617 129.257 206.592 127.682 204.832C123.526 200.146 119.278 195.54 115.069 190.907C109.445 184.725 103.74 178.637 98.2348 172.349C95.8658 169.649 93.735 166.671 92.6762 162.951C94.0923 160.41 95.5085 157.882 97.1628 154.943C97.9304 156.161 98.526 156.836 98.8039 157.617C99.5186 159.642 101.027 160.86 102.774 161.839C105.832 163.547 109.008 161.906 109.114 158.398C109.18 156.227 108.876 153.99 108.373 151.872C106.679 144.777 106.017 137.577 106.004 130.31C106.004 128.457 106.189 126.604 106.308 124.406C105.461 123.414 104.548 122.355 103.542 121.177V121.163ZM67.2523 150.972L68.3376 151.052C68.9861 149.688 69.9125 148.391 70.2169 146.961C71.0507 142.99 71.5801 138.953 72.3212 134.956C75.7622 116.544 81.5591 99.0185 91.816 83.1478C98.8304 72.2938 107.287 62.8826 118.391 56.0922C124.545 52.333 130.978 49.2754 138.455 49.3813C139.104 49.3813 139.765 49.2092 140.414 49.1166C142.148 48.8783 143.246 48.0047 143.445 46.231C141.142 37.614 140.97 35.88 143.246 29.4735C144.265 26.6011 145.92 23.9538 147.375 21.2535C148.434 19.2813 149.241 17.3355 148.13 15.0059C145.92 15.0853 144.106 15.7736 142.995 17.6002C141.579 19.9299 140.321 22.3654 139.024 24.7745C136.364 29.6985 135.57 34.9137 136.51 40.4201C136.695 41.479 136.788 42.5512 136.96 43.8881C135.967 44.0999 135.146 44.2852 134.326 44.4573C131.533 45.0529 128.648 45.3574 125.975 46.2839C115.03 50.0166 106.109 56.8864 98.1422 65.0534C91.591 71.7644 86.2574 79.4019 81.9032 87.7277C78.2371 94.7431 74.9682 101.931 72.4006 109.422C69.8993 116.689 68.2714 124.181 66.7626 131.686C65.7965 136.505 64.8304 141.415 65.9818 146.379C66.3391 147.928 66.8156 149.45 67.2391 150.985L67.2523 150.972ZM282.529 55.7348C282.251 55.1657 282.158 54.6759 281.867 54.4377C279.193 52.1874 276.705 49.6195 273.741 47.8326C268.209 44.497 262.385 41.6246 256.708 38.5405C254.881 37.5478 253.121 36.3962 251.255 35.4829C247.324 33.5636 243.38 31.631 239.357 29.9235C233.203 27.3159 227.075 24.5759 220.736 22.4713C215.23 20.6446 209.486 19.5195 203.808 18.2621C196.092 16.5545 188.231 16.7266 180.528 17.8782C172.932 19.0165 165.706 21.6903 159.154 25.926C154.443 28.9837 150.75 32.8885 147.865 38.1434C148.686 39.3215 149.506 40.5128 150.141 41.4261C152.563 41.7041 153.357 40.2613 154.337 39.1097C155.674 37.5213 156.812 35.7079 158.373 34.3842C166.791 27.2232 176.942 24.5891 187.662 24.1259C197.032 23.7288 206.191 25.4495 215.15 28.2424C229.47 32.7164 242.864 39.3082 256.138 46.178C261.697 49.0636 267.15 52.1477 272.827 54.795C275.739 56.1584 279.021 56.8732 282.542 55.7348H282.529ZM168.339 121.613C168.882 122.831 169.08 123.586 169.504 124.194C170.986 126.352 172.389 128.602 174.149 130.535C175.42 131.938 177.273 132.679 179.271 131.938C181.177 131.223 181.706 129.502 181.945 127.702C182.699 121.944 177.431 115.697 171.595 115.591C169.133 115.551 166.658 115.961 163.998 116.186C163.959 115.551 163.906 114.916 163.892 114.28C163.786 104.154 163.403 94.0415 161.365 84.1009C160.266 78.74 158.426 73.5381 156.838 68.2831C156.388 66.8006 155.647 65.424 153.755 65.2122C151.968 66.0461 152.008 67.4625 152.338 69.1038C153.622 75.4441 154.919 81.7845 156.044 88.1513C156.587 91.2619 156.799 94.4254 157.103 97.5625C157.262 99.1641 157.328 100.779 157.447 102.381C157.301 108.986 158.188 115.683 156.944 122.09C152.365 125.161 148.884 130.879 146.952 135.194C146.184 136.902 145.761 138.755 147.296 140.502C150.022 140.992 150.684 138.702 151.465 137.1C154.377 131.13 159.618 127.477 164.554 123.519C165.533 122.738 166.844 122.355 168.339 121.613ZM136.02 147.266C139.54 145.479 140.374 142.408 140.851 139.244C142.174 130.336 143.471 121.415 144.649 112.48C146.211 100.739 145.827 89.0116 144.186 77.3105C143.961 75.7089 143.273 74.6367 141.248 74.4646C140.679 74.9808 139.977 75.6294 139.487 76.0662C139.487 81.8771 139.54 87.3306 139.461 92.7973C139.408 96.3844 139.329 99.9715 138.985 103.532C138.376 109.74 137.582 115.935 136.774 122.13C136.166 126.789 135.517 131.448 134.683 136.068C134.008 139.827 133.969 143.427 136.02 147.279V147.266ZM272.272 384.982C269.545 382.904 266.964 380.931 264.37 378.972C262.716 377.715 261.154 376.285 259.354 375.279C250.752 370.488 242.48 371.586 234.619 377.053C233.295 377.966 232.17 379.277 231.231 380.6C229.55 382.983 230.463 385.524 233.322 386.16C235.439 386.623 237.676 386.623 239.86 386.729C247.311 387.1 254.762 387.483 262.226 387.735C265.694 387.854 269.228 387.841 272.285 385.008L272.272 384.982ZM216.844 347.747C215.561 348.091 214.303 348.171 213.324 348.727C209.433 350.977 205.476 353.148 201.836 355.769C195.047 360.679 189.237 366.676 184.009 373.214C182.778 374.75 181.508 376.299 180.542 378.006C179.774 379.356 178.821 380.958 180.767 382.652C182.209 382.281 183.837 381.381 185.306 381.593C188.218 382.004 189.793 380.561 191.354 378.562C195.695 373.016 200.606 367.986 205.979 363.419C209.407 360.507 212.821 357.569 216.262 354.657C217.533 353.585 218.83 352.539 218.764 350.434C218.287 349.772 217.718 348.978 216.831 347.747H216.844ZM318.064 111.183C317.468 108.734 316.833 106.709 315.033 105.24C305.067 97.1256 295.128 88.9719 285.109 80.9241C280.477 77.2046 275.713 73.6704 270.948 70.123C269.863 69.3156 268.539 68.8391 267.401 68.2434C265.416 70.8113 265.39 71.5393 267.229 73.2866C269.942 75.8677 272.602 78.5018 275.474 80.8844C284.95 88.7204 294.506 96.4638 304.022 104.247C306.232 106.06 308.363 107.98 310.666 109.687C312.717 111.209 314.98 112.295 318.064 111.196V111.183ZM181.918 106.484C184.79 103.347 184.261 100.091 183.665 97.0198C182.818 92.7179 181.733 88.4425 180.436 84.2465C177.948 76.1457 174.639 68.3626 170.046 61.2016C169.305 60.05 168.114 59.1631 167.082 58.2101C166.883 58.0248 166.46 58.0777 165.93 57.9718C165.428 58.5278 164.858 59.1499 164.276 59.7985C164.581 60.7647 164.779 61.6251 165.123 62.4061C166.711 66.0197 168.551 69.5274 169.901 73.2204C172.177 79.4945 174.215 85.8481 176.214 92.2149C176.862 94.2798 177.048 96.4771 177.498 98.6082C178.106 101.547 179.47 104.075 181.918 106.457V106.484ZM199.07 382.123C201.069 383.698 202.22 382.334 203.411 381.17C206.786 377.86 209.989 374.366 213.562 371.282C217.387 367.986 221.53 365.061 225.579 362.043C227.3 360.772 228.478 359.395 227.829 357.145C226.334 356.219 224.997 356.51 223.74 357.37C222.284 358.363 220.894 359.435 219.452 360.454C212.252 365.511 205.767 371.361 199.997 378.006C199.004 379.158 198.475 380.415 199.07 382.109V382.123ZM93.5233 118.264C91.988 117.801 91.1013 118.569 90.7175 119.84C90.3205 121.19 90.3734 122.686 89.8572 123.983C87.1309 130.892 86.6147 138.239 85.3971 145.452C85.1324 147.028 85.1192 148.642 84.9736 150.575C87.6603 148.1 90.519 143.533 91.0484 140.886C92.2395 134.969 93.4174 129.052 94.5291 123.122C94.8467 121.415 95.1114 119.601 93.5233 118.264ZM313.405 137.06C313.71 134.956 313.551 134.334 312.333 133.209C310.11 131.144 307.899 129.052 305.623 127.054C303.492 125.174 301.295 123.361 298.212 123.506C297.166 125.598 297.193 126.67 299.072 128.377C302.235 131.236 305.57 133.91 308.892 136.584C310.149 137.59 311.632 137.934 313.405 137.074V137.06ZM297.563 158.596C298.728 156.783 298.093 155.261 296.941 153.791C294.162 150.284 291.396 146.763 288.603 143.268C287.69 142.13 286.578 141.323 285.003 141.389C283.548 143.268 284.183 145.016 285.308 146.578C287.875 150.112 290.536 153.58 293.222 157.021C294.294 158.398 295.671 159.152 297.563 158.583V158.596ZM229.629 159.642C226.4 159.708 224.388 162.607 221.569 163.189C220.074 165.148 219.28 166.962 221.477 169.014C224.772 169.119 227.512 168.113 229.391 165.029C230.45 163.282 231.628 161.68 229.642 159.642H229.629ZM215.455 118.556C214.502 119.257 213.562 119.946 212.768 120.528C212.583 123.943 213.337 125.2 215.508 125.452C217.361 125.664 219.028 124.433 219.346 122.633C219.677 120.793 218.605 119.575 215.468 118.569L215.455 118.556ZM186.987 157.127C183.718 156.876 182.421 157.405 181.892 159.126C181.442 160.608 182.156 162.435 183.44 163.07C184.896 163.785 187 163.362 187.927 162.157C189.012 160.754 188.774 159.351 187 157.114L186.987 157.127ZM223.965 112.467C223.846 115.591 224.375 116.597 226.268 116.994C227.975 117.351 229.47 116.663 230.119 115.22C230.807 113.698 230.344 112.149 228.901 111.209C227.234 110.111 226.188 110.362 223.965 112.48V112.467ZM229.02 124.578C227.115 124.645 225.738 126.127 225.831 128.02C225.924 129.886 227.247 131.078 229.087 130.932C230.86 130.8 232.157 129.396 232.131 127.676C232.104 125.836 230.781 124.512 229.007 124.578H229.02ZM182.884 143.811C179.205 144.433 178.067 145.505 178.305 147.584C178.477 149.145 179.589 150.112 181.164 150.085C183.083 150.046 183.89 148.92 184.261 145.122C183.956 144.844 183.281 144.195 182.884 143.824V143.811ZM167.691 154.89C168.061 156.756 168.67 158.318 170.642 158.504C172.495 158.676 173.342 157.352 173.779 155.764C172.349 152.177 170.51 151.859 167.691 154.89Z" fill="white"/>
<path d="M85.5295 206.407C87.8456 207.77 90.4528 209.134 92.888 210.762C99.0818 214.931 105.236 219.167 111.324 223.509C116.155 226.95 120.84 230.59 125.631 234.085C126.928 235.038 128.384 235.792 129.985 236.758C131.56 234.813 133.082 233.224 134.26 231.424C137.688 226.209 141.195 221.073 143.723 215.275C145.827 210.431 146.475 205.414 145.959 200.45C145.337 194.468 143.723 188.591 142.359 182.7C140.692 175.473 137.277 168.934 133.982 162.369C128.847 152.163 123.712 141.971 118.55 131.779C116.763 128.258 114.858 124.79 113.071 121.256C112.489 120.091 112.131 118.807 111.43 116.901C111.959 116.345 112.608 115.67 113.587 114.651C114.99 116.2 115.956 117.06 116.644 118.092C117.624 119.548 118.405 121.137 119.252 122.686C124.122 131.673 128.992 140.674 133.836 149.675C136.761 155.089 139.765 160.463 142.518 165.969C146.939 174.785 149.744 184.156 151.518 193.832C153.662 205.52 151.994 216.639 146.303 227.069C141.565 235.752 136.655 244.356 131.758 252.947C128.926 257.911 125.856 262.729 123.103 267.719C121.409 270.79 120.138 274.072 118.643 277.249C117.941 278.732 117.213 280.214 116.419 281.644C115.096 284.013 114.752 286.356 116.141 288.646C117.796 289.533 118.855 288.672 119.887 287.838C124.347 284.278 128.781 280.691 133.227 277.104C137.066 274.019 140.917 270.949 144.728 267.851C148.792 264.542 152.696 261.021 156.918 257.924C161.682 254.429 166.751 251.345 171.621 247.983C175.062 245.614 178.384 243.086 181.759 240.637C183.718 239.207 185.65 237.672 188.668 238.492C190.785 241.246 193.035 244.224 195.338 247.149C200.05 253.132 205.092 258.797 211.101 263.496C212.689 264.741 214.648 265.522 216.13 266.355C218.459 265.376 219.439 263.946 219.809 262.146C220.378 259.459 221 256.759 221.252 254.032C221.927 246.805 222.469 239.565 222.985 232.337C223.144 230.034 223.766 228.022 225.752 226.527C228.412 226.381 230.542 227.453 232.329 229.492C237.504 235.408 243.618 240.279 249.945 244.859C252.896 247.004 256.033 249.267 260.043 249.32C261.737 248.645 262.769 247.414 262.875 245.614C263.021 243.218 263.298 240.782 262.994 238.426C262.438 234.191 261.525 229.995 260.665 225.812C260.096 223.059 260.096 220.385 260.916 217.671C262.279 213.197 264.543 211.702 268.632 212.033C274.177 212.469 279.696 213.436 285.162 214.495C290.866 215.593 296.544 216.957 302.169 218.426C307.211 219.749 312.174 221.404 317.19 222.86C325.29 225.229 333.429 227.466 341.489 229.968C346.188 231.424 350.78 233.224 355.372 234.998C356.868 235.58 358.178 236.613 359.7 237.513C359.184 252.563 360.071 267.441 359.078 283.06C359.211 285.271 359.515 288.275 359.541 291.293C359.608 299.288 359.608 307.283 359.528 315.278C359.528 316.681 359.025 318.071 359.171 319.447C359.25 326.291 359.343 333.134 359.383 339.977C359.422 346.953 359.713 353.942 359.29 360.891C358.88 367.748 360.415 374.618 358.814 381.686C357.225 382.295 355.531 382.798 353.414 382.652C350.74 382.454 348.027 383.235 345.314 383.367C342.177 383.526 339.028 383.38 335.891 383.46C332.079 383.552 328.281 383.804 324.483 383.857C319.599 383.923 314.702 383.87 309.686 383.87C309.011 382.824 308.191 381.58 307.264 380.15C306.867 372.791 306.457 365.259 306.02 357.344C301.441 355.027 296.888 352.446 292.124 350.368C282.952 346.384 273.648 342.691 263.96 340.11C260.056 339.064 256.033 338.376 252.022 337.899C247.47 337.357 242.877 337.039 238.298 336.973C227.525 336.814 217.255 338.945 207.421 343.551C200.354 346.86 194.015 351.202 188.443 356.47C181.508 363.022 175.565 370.488 170.88 378.88C169.835 380.746 168.498 382.44 167.452 384.36C165.626 386.014 163.495 386.676 160.888 386.372C158.625 386.107 156.309 386.491 154.006 386.451C140.851 386.213 127.682 385.908 114.527 385.657C106.057 385.485 97.5863 385.405 89.1293 385.194C84.4178 385.074 79.7062 384.757 75.0079 384.492C72.2815 384.333 69.5552 384.042 66.8156 383.936C53.7794 383.38 43.1122 377.583 34.2184 368.529C31.3862 365.656 28.7128 362.307 27.3364 358.231C26.7143 356.377 25.3511 354.776 24.7688 352.923C22.9689 347.125 21.8572 341.155 22.5057 335.08C23.1542 328.912 24.1071 322.757 25.1129 316.641C25.4703 314.523 26.3702 312.485 27.0849 310.433C28.5275 306.317 29.8774 302.147 31.5053 298.11C32.8949 294.682 34.6552 291.412 36.2036 288.063C37.8977 284.397 39.4461 280.651 41.2593 277.037C42.9666 273.649 44.118 269.89 46.3017 267.957C48.1546 264.251 49.4384 261.352 51.0133 258.612C54.5073 252.536 58.1468 246.54 61.7202 240.518C61.8922 240.24 62.0114 239.922 62.1966 239.657C68.3376 230.736 73.7373 221.338 79.4283 212.125C80.6194 210.206 81.4929 207.916 83.8487 206.95C84.2457 206.791 84.6692 206.672 85.5295 206.38V206.407ZM221.199 272.06C221.371 272.391 221.411 272.643 221.569 272.762C221.913 273.027 222.297 273.239 222.694 273.437C227.406 275.727 232.422 276.746 237.636 276.931C240.892 277.051 244.108 276.72 247.218 275.78C253.941 273.755 257.978 268.897 260.585 262.662C261.287 260.995 261.71 259.208 262.213 257.672C261.75 257.275 261.671 257.143 261.578 257.13C253.399 256.666 247.006 252.444 240.932 247.44C237.914 244.952 234.698 242.702 231.151 240.028C230.715 241.047 230.159 241.828 230.066 242.662C229.55 247.321 229.285 252.02 228.65 256.666C227.843 262.583 226.625 268.394 221.199 272.06Z" fill="black"/>
<path d="M156.124 188.22C157.209 188.22 158.148 187.982 158.89 188.26C162.291 189.57 165.891 189.98 169.08 192.297C172.601 194.851 176.876 196.427 180.965 198.121C186.524 200.437 192.347 201.959 198.236 203.204C205.727 204.792 213.364 205.163 220.775 203.548C232.144 201.073 241.117 194.772 247.748 185.03C253.822 176.108 257.171 166.26 258.865 155.711C260.215 147.292 259.924 138.874 258.296 130.588C256.549 121.719 253.2 113.354 248.78 105.451C244.532 97.8537 239.754 90.6133 233.613 84.3523C228.915 79.5607 224.018 74.9808 218.327 71.354C214.065 68.6405 209.817 65.9138 205.542 63.2135C204.999 62.8694 204.351 62.6708 203.835 62.4326C196.079 67.3566 190.891 89.0513 193.115 99.217C194.279 97.536 195.232 95.9741 196.384 94.5578C197.892 92.7046 199.507 90.9442 201.148 89.1969C205.41 84.67 213.655 84.5509 218.049 90.9177C219.889 93.5782 221.278 96.4109 221.596 99.6936C221.821 102.036 221.609 102.566 219.677 104.79C217.321 105.597 215.349 104.962 213.523 103.122C211.432 101.03 210.108 98.5684 209.235 95.802C208.904 94.7695 208.679 93.6974 208.361 92.5326C205.198 91.6854 203.689 94.1871 202.114 95.8549C199.229 98.8994 197.045 102.486 195.616 106.484C195.285 107.41 194.795 108.271 194.293 109.356C195.576 115.511 197.76 121.547 201.625 126.656C205.37 131.607 209.817 136.015 214.409 141.164C213.88 141.706 213.231 142.368 212.371 143.242C210.465 142.117 208.97 141.455 207.739 140.475C200.539 134.757 195.351 127.517 191.593 119.165C187.662 110.455 186.206 101.255 186.325 91.831C186.405 84.6568 187.821 77.7208 190.507 70.9569C192.056 67.0654 193.763 63.3459 196.662 59.7058C195.245 59.044 194.24 58.4351 193.168 58.091C191.394 57.5218 189.541 57.1644 187.755 56.6085C186.047 56.079 185.214 54.9936 185.968 53.0478C192.532 50.5329 198.131 54.848 204.086 55.5098C207.911 57.7336 211.709 59.9176 215.481 62.1414C217.07 63.0812 218.631 64.0871 220.193 65.0931C222.377 66.5227 224.653 67.8331 226.678 69.448C230.317 72.3335 233.904 75.2985 237.319 78.4356C242.282 82.989 246.596 88.0851 249.839 94.0548C251.189 96.5433 252.83 98.8596 254.286 101.282C260.413 111.461 264.278 122.434 265.72 134.241C266.157 137.815 266.964 141.429 266.792 144.989C266.435 152.203 266.091 159.47 263.881 166.446C261.803 173.038 259.699 179.629 256.033 185.586C250.633 194.375 243.711 201.523 234.473 206.367C227.207 210.193 219.425 212.085 211.352 212.258C203.782 212.43 196.198 211.702 188.853 209.491C179.973 206.817 171.41 203.429 163.667 198.24C161.867 197.022 160.226 195.513 158.704 193.938C157.249 192.429 156.388 190.536 156.124 188.193L156.124 188.22Z" fill="black"/>
<path d="M103.542 121.163C104.548 122.341 105.461 123.4 106.308 124.393C106.189 126.59 106.004 128.443 106.004 130.297C106.004 137.563 106.679 144.764 108.373 151.859C108.876 153.977 109.18 156.214 109.114 158.385C109.008 161.892 105.832 163.534 102.774 161.826C101.027 160.847 99.5054 159.629 98.8039 157.604C98.526 156.823 97.9304 156.148 97.1628 154.93C95.5217 157.868 94.1056 160.397 92.6762 162.938C93.735 166.657 95.8658 169.636 98.2348 172.336C103.74 178.61 109.445 184.712 115.069 190.894C119.291 195.526 123.526 200.133 127.682 204.819C129.257 206.592 130.329 208.617 129.191 211.199C126.531 211.675 124.731 210.153 123.143 208.538C117.399 202.661 111.522 196.89 106.109 190.708C100.935 184.792 96.2629 178.425 91.4189 172.217C90.7043 171.29 90.241 170.178 89.4337 168.736C88.3617 169.609 87.3559 170.231 86.6147 171.065C84.4972 173.448 82.4855 175.91 80.4341 178.345C76.8607 182.581 72.6653 186.049 67.8743 188.696H62.6863C62.9113 185.321 64.6318 183.031 66.8156 181.284C77.946 172.349 86.1912 161.032 93.6556 149.066C94.9394 147.001 95.7467 144.817 96.1305 142.342C96.8452 137.683 97.9304 133.076 98.9495 128.47C99.5186 125.889 100.392 123.414 103.542 121.15V121.163Z" fill="black"/>
<path d="M67.2523 150.972C66.8288 149.437 66.3523 147.914 65.995 146.366C64.8436 141.402 65.8097 136.491 66.7759 131.673C68.2846 124.168 69.9125 116.676 72.4139 109.409C74.9946 101.917 78.2636 94.7298 81.9164 87.7144C86.2574 79.3886 91.6042 71.7511 98.1554 65.0402C106.109 56.8732 115.043 50.0034 125.988 46.2707C128.661 45.3574 131.547 45.0397 134.339 44.444C135.16 44.272 135.98 44.0866 136.973 43.8749C136.801 42.5512 136.708 41.4658 136.523 40.4069C135.57 34.9005 136.377 29.6852 139.038 24.7612C140.335 22.3522 141.592 19.9299 143.008 17.587C144.12 15.7603 145.933 15.072 148.143 14.9926C149.242 17.3223 148.447 19.268 147.389 21.2403C145.933 23.9406 144.278 26.5879 143.259 29.4602C140.983 35.8667 141.142 37.5875 143.458 46.2177C143.259 47.9914 142.161 48.8651 140.427 49.1033C139.779 49.196 139.117 49.3813 138.468 49.368C130.991 49.2621 124.545 52.3198 118.405 56.079C107.301 62.8694 98.8436 72.2806 91.8292 83.1346C81.5723 99.0052 75.7755 116.531 72.3345 134.943C71.5933 138.94 71.0639 142.977 70.2301 146.948C69.9257 148.378 68.9993 149.675 68.3508 151.038L67.2655 150.959L67.2523 150.972Z" fill="black"/>
<path d="M282.529 55.7348C279.008 56.86 275.739 56.1452 272.814 54.795C267.15 52.161 261.684 49.0636 256.125 46.178C242.864 39.3082 229.47 32.7164 215.137 28.2424C206.177 25.4495 197.019 23.7155 187.649 24.1259C176.942 24.5891 166.791 27.2232 158.36 34.3842C156.799 35.7079 155.66 37.5213 154.324 39.1097C153.344 40.2745 152.537 41.7041 150.128 41.4261C149.493 40.5128 148.672 39.3215 147.852 38.1434C150.737 32.8885 154.43 28.9837 159.141 25.926C165.705 21.6771 172.918 19.0033 180.515 17.8782C188.218 16.7266 196.079 16.5545 203.795 18.2621C209.473 19.5195 215.217 20.6446 220.722 22.4713C227.062 24.5759 233.189 27.3159 239.344 29.9235C243.367 31.631 247.311 33.5636 251.242 35.4829C253.108 36.3962 254.868 37.5478 256.694 38.5405C262.385 41.6246 268.195 44.497 273.727 47.8326C276.692 49.6195 279.18 52.1874 281.854 54.4377C282.145 54.6759 282.237 55.1657 282.515 55.7348H282.529Z" fill="black"/>
<path d="M168.339 121.613C166.83 122.355 165.533 122.738 164.554 123.519C159.618 127.477 154.377 131.13 151.465 137.1C150.684 138.702 150.036 140.992 147.296 140.502C145.761 138.755 146.184 136.902 146.952 135.194C148.884 130.879 152.365 125.161 156.944 122.09C158.175 115.683 157.288 108.986 157.447 102.381C157.341 100.779 157.262 99.1641 157.103 97.5625C156.785 94.4254 156.587 91.2486 156.044 88.1513C154.919 81.7845 153.622 75.4441 152.338 69.1038C152.008 67.4625 151.968 66.0461 153.755 65.2122C155.647 65.424 156.388 66.8006 156.838 68.2831C158.426 73.5381 160.266 78.74 161.365 84.1009C163.403 94.0283 163.786 104.154 163.892 114.28C163.892 114.916 163.959 115.551 163.998 116.186C166.645 115.961 169.12 115.551 171.595 115.591C177.431 115.697 182.699 121.931 181.945 127.702C181.706 129.502 181.177 131.223 179.271 131.938C177.286 132.679 175.42 131.938 174.149 130.535C172.402 128.602 170.999 126.352 169.504 124.194C169.08 123.586 168.882 122.831 168.339 121.613Z" fill="black"/>
<path d="M136.02 147.266C133.969 143.414 134.008 139.827 134.683 136.054C135.517 131.435 136.166 126.776 136.774 122.116C137.582 115.922 138.363 109.727 138.985 103.519C139.342 99.9583 139.421 96.3579 139.461 92.784C139.54 87.3173 139.487 81.8639 139.487 76.053C139.977 75.603 140.679 74.9676 141.248 74.4514C143.273 74.6235 143.961 75.7089 144.186 77.2972C145.827 88.9984 146.211 100.726 144.649 112.467C143.458 121.402 142.174 130.323 140.851 139.231C140.374 142.395 139.54 145.466 136.02 147.253V147.266Z" fill="black"/>
<path d="M272.272 384.982C269.201 387.814 265.681 387.828 262.213 387.708C254.762 387.457 247.298 387.073 239.846 386.702C237.663 386.597 235.426 386.61 233.309 386.133C230.45 385.498 229.537 382.957 231.217 380.574C232.157 379.25 233.282 377.953 234.606 377.027C242.467 371.573 250.752 370.461 259.341 375.253C261.141 376.259 262.703 377.688 264.357 378.946C266.951 380.905 269.532 382.877 272.258 384.955L272.272 384.982Z" fill="black"/>
<path d="M216.845 347.76C217.731 348.991 218.3 349.786 218.777 350.447C218.843 352.552 217.546 353.598 216.275 354.67C212.848 357.582 209.42 360.521 205.992 363.433C200.619 367.999 195.722 373.016 191.368 378.575C189.806 380.574 188.218 382.017 185.319 381.606C183.85 381.395 182.222 382.295 180.78 382.665C178.834 380.984 179.787 379.369 180.555 378.019C181.521 376.312 182.792 374.763 184.022 373.228C189.25 366.689 195.06 360.693 201.85 355.782C205.476 353.161 209.446 350.99 213.337 348.74C214.303 348.171 215.561 348.105 216.858 347.76H216.845Z" fill="black"/>
<path d="M318.064 111.196C314.98 112.308 312.717 111.209 310.666 109.687C308.376 107.98 306.245 106.06 304.022 104.247C294.506 96.4638 284.937 88.7337 275.474 80.8844C272.602 78.5018 269.942 75.8677 267.229 73.2866C265.39 71.5393 265.416 70.8246 267.401 68.2434C268.539 68.8391 269.863 69.3156 270.948 70.123C275.713 73.6704 280.477 77.2046 285.109 80.9241C295.128 88.9719 305.067 97.1256 315.033 105.24C316.833 106.709 317.468 108.734 318.064 111.183V111.196Z" fill="black"/>
<path d="M181.931 106.497C179.483 104.115 178.133 101.586 177.511 98.6479C177.061 96.5168 176.876 94.3195 176.227 92.2546C174.229 85.8878 172.191 79.5342 169.914 73.2601C168.564 69.5671 166.725 66.0594 165.136 62.4458C164.792 61.6516 164.594 60.8045 164.289 59.8382C164.885 59.1764 165.441 58.5675 165.944 58.0115C166.486 58.1042 166.897 58.0645 167.095 58.2498C168.127 59.2028 169.319 60.0897 170.06 61.2413C174.652 68.4023 177.961 76.1854 180.449 84.2862C181.733 88.4822 182.831 92.7576 183.678 97.0595C184.287 100.13 184.803 103.387 181.931 106.524V106.497Z" fill="black"/>
<path d="M199.07 382.136C198.475 380.428 198.991 379.184 199.997 378.033C205.767 371.388 212.252 365.537 219.452 360.481C220.894 359.475 222.284 358.389 223.74 357.397C224.997 356.536 226.334 356.245 227.829 357.172C228.478 359.435 227.3 360.799 225.579 362.069C221.516 365.074 217.374 368.012 213.562 371.308C209.989 374.379 206.786 377.887 203.411 381.196C202.233 382.348 201.069 383.724 199.07 382.149V382.136Z" fill="black"/>
<path d="M93.5233 118.264C95.1247 119.601 94.8467 121.415 94.5291 123.122C93.4306 129.052 92.2527 134.969 91.0484 140.886C90.519 143.533 87.647 148.1 84.9736 150.575C85.1324 148.642 85.1324 147.028 85.3971 145.452C86.6015 138.239 87.1309 130.892 89.8572 123.983C90.3602 122.699 90.3072 121.19 90.7175 119.84C91.1013 118.556 91.988 117.788 93.5233 118.264Z" fill="black"/>
<path d="M313.405 137.047C311.645 137.908 310.149 137.577 308.892 136.557C305.57 133.884 302.235 131.21 299.072 128.351C297.179 126.643 297.166 125.571 298.212 123.48C301.282 123.334 303.492 125.161 305.623 127.027C307.899 129.039 310.11 131.117 312.333 133.182C313.537 134.307 313.71 134.929 313.405 137.034V137.047Z" fill="black"/>
<path d="M297.55 158.596C295.671 159.166 294.281 158.411 293.209 157.034C290.536 153.58 287.862 150.112 285.295 146.591C284.17 145.042 283.534 143.295 284.99 141.402C286.565 141.336 287.677 142.143 288.59 143.282C291.383 146.776 294.149 150.284 296.928 153.805C298.079 155.261 298.715 156.796 297.55 158.61V158.596Z" fill="black"/>
<path d="M229.629 159.642C231.614 161.68 230.437 163.282 229.378 165.029C227.512 168.113 224.759 169.119 221.463 169.014C219.266 166.962 220.061 165.162 221.556 163.189C224.375 162.607 226.387 159.708 229.616 159.642L229.629 159.642Z" fill="black"/>
<path d="M215.455 118.556C218.591 119.562 219.664 120.793 219.333 122.619C219.015 124.433 217.347 125.651 215.495 125.439C213.324 125.187 212.583 123.93 212.755 120.515C213.549 119.932 214.502 119.244 215.442 118.542L215.455 118.556Z" fill="black"/>
<path d="M186.987 157.114C188.76 159.351 188.999 160.754 187.913 162.157C186.987 163.362 184.883 163.785 183.427 163.07C182.143 162.435 181.428 160.608 181.878 159.126C182.408 157.405 183.705 156.876 186.974 157.127L186.987 157.114Z" fill="black"/>
<path d="M223.965 112.454C226.188 110.336 227.234 110.084 228.901 111.183C230.344 112.123 230.807 113.671 230.119 115.194C229.47 116.636 227.975 117.325 226.268 116.967C224.375 116.57 223.846 115.577 223.965 112.44V112.454Z" fill="black"/>
<path d="M229.02 124.578C230.781 124.525 232.117 125.836 232.144 127.676C232.17 129.41 230.86 130.8 229.1 130.932C227.273 131.078 225.95 129.886 225.844 128.02C225.738 126.127 227.128 124.645 229.034 124.578L229.02 124.578Z" fill="black"/>
<path d="M182.884 143.811C183.281 144.182 183.956 144.83 184.261 145.108C183.89 148.92 183.083 150.032 181.164 150.072C179.589 150.112 178.477 149.132 178.305 147.57C178.067 145.492 179.205 144.42 182.884 143.798V143.811Z" fill="black"/>
<path d="M167.691 154.89C170.51 151.859 172.349 152.177 173.779 155.764C173.342 157.352 172.495 158.676 170.642 158.504C168.67 158.332 168.061 156.756 167.691 154.89Z" fill="black"/>
<path d="M236.114 254.548C239.013 253.794 241.13 254.35 242.229 256.163C243.155 257.699 242.851 261.67 241.673 263.112C240.561 264.502 238.907 264.714 237.252 263.668C234.036 261.656 233.6 258.083 236.114 254.548Z" fill="black"/>
</svg>
